<?xml version="1.0" encoding="UTF-8"?>
<svg xmlns="http://www.w3.org/2000/svg" id="a" width="865.76" height="682.89" viewBox="0 0 865.76 682.89">
  <g>
    <g>
      <g>
        <rect x="589.44" y="539.87" width="62.6" height="9.51" rx="1.92" ry="1.92" fill="#08294E"></rect>
        <path d="M650.12,549.88h-58.76c-1.33,0-2.42-1.09-2.42-2.42v-5.67c0-1.33,1.09-2.42,2.42-2.42h58.76c1.33,0,2.42,1.09,2.42,2.42v5.67c0,1.33-1.09,2.42-2.42,2.42Zm-58.76-9.51c-.78,0-1.42,.64-1.42,1.42v5.67c0,.78,.64,1.42,1.42,1.42h58.76c.78,0,1.42-.64,1.42-1.42v-5.67c0-.78-.64-1.42-1.42-1.42h-58.76Z" fill="#002346"></path>
      </g>
      <path d="M594.59,547.87c-.28,0-.5-.22-.5-.5v-5.49c0-.28,.22-.5,.5-.5s.5,.22,.5,.5v5.49c0,.28-.22,.5-.5,.5Z" fill="#002346"></path>
      <path d="M599.74,547.87c-.28,0-.5-.22-.5-.5v-5.49c0-.28,.22-.5,.5-.5s.5,.22,.5,.5v5.49c0,.28-.22,.5-.5,.5Z" fill="#002346"></path>
      <path d="M604.89,547.87c-.28,0-.5-.22-.5-.5v-5.49c0-.28,.22-.5,.5-.5s.5,.22,.5,.5v5.49c0,.28-.22,.5-.5,.5Z" fill="#002346"></path>
      <path d="M610.03,547.87c-.28,0-.5-.22-.5-.5v-5.49c0-.28,.22-.5,.5-.5s.5,.22,.5,.5v5.49c0,.28-.22,.5-.5,.5Z" fill="#002346"></path>
      <path d="M615.18,547.87c-.28,0-.5-.22-.5-.5v-5.49c0-.28,.22-.5,.5-.5s.5,.22,.5,.5v5.49c0,.28-.22,.5-.5,.5Z" fill="#002346"></path>
      <path d="M620.33,547.87c-.28,0-.5-.22-.5-.5v-5.49c0-.28,.22-.5,.5-.5s.5,.22,.5,.5v5.49c0,.28-.22,.5-.5,.5Z" fill="#002346"></path>
      <path d="M625.48,547.87c-.28,0-.5-.22-.5-.5v-5.49c0-.28,.22-.5,.5-.5s.5,.22,.5,.5v5.49c0,.28-.22,.5-.5,.5Z" fill="#002346"></path>
      <path d="M630.62,547.87c-.28,0-.5-.22-.5-.5v-5.49c0-.28,.22-.5,.5-.5s.5,.22,.5,.5v5.49c0,.28-.22,.5-.5,.5Z" fill="#002346"></path>
      <path d="M635.77,547.87c-.28,0-.5-.22-.5-.5v-5.49c0-.28,.22-.5,.5-.5s.5,.22,.5,.5v5.49c0,.28-.22,.5-.5,.5Z" fill="#002346"></path>
      <path d="M640.92,547.87c-.28,0-.5-.22-.5-.5v-5.49c0-.28,.22-.5,.5-.5s.5,.22,.5,.5v5.49c0,.28-.22,.5-.5,.5Z" fill="#002346"></path>
      <path d="M646.07,547.87c-.28,0-.5-.22-.5-.5v-5.49c0-.28,.22-.5,.5-.5s.5,.22,.5,.5v5.49c0,.28-.22,.5-.5,.5Z" fill="#002346"></path>
    </g>
    <g>
      <g>
        <rect x="585.44" y="549.87" width="62.6" height="9.51" rx="1.92" ry="1.92" fill="#08294E"></rect>
        <path d="M646.12,559.88h-58.76c-1.33,0-2.42-1.09-2.42-2.42v-5.67c0-1.33,1.09-2.42,2.42-2.42h58.76c1.33,0,2.42,1.09,2.42,2.42v5.67c0,1.33-1.09,2.42-2.42,2.42Zm-58.76-9.51c-.78,0-1.42,.64-1.42,1.42v5.67c0,.78,.64,1.42,1.42,1.42h58.76c.78,0,1.42-.64,1.42-1.42v-5.67c0-.78-.64-1.42-1.42-1.42h-58.76Z" fill="#002346"></path>
      </g>
      <path d="M590.59,557.87c-.28,0-.5-.22-.5-.5v-5.49c0-.28,.22-.5,.5-.5s.5,.22,.5,.5v5.49c0,.28-.22,.5-.5,.5Z" fill="#002346"></path>
      <path d="M595.74,557.87c-.28,0-.5-.22-.5-.5v-5.49c0-.28,.22-.5,.5-.5s.5,.22,.5,.5v5.49c0,.28-.22,.5-.5,.5Z" fill="#002346"></path>
      <path d="M600.89,557.87c-.28,0-.5-.22-.5-.5v-5.49c0-.28,.22-.5,.5-.5s.5,.22,.5,.5v5.49c0,.28-.22,.5-.5,.5Z" fill="#002346"></path>
      <path d="M606.03,557.87c-.28,0-.5-.22-.5-.5v-5.49c0-.28,.22-.5,.5-.5s.5,.22,.5,.5v5.49c0,.28-.22,.5-.5,.5Z" fill="#002346"></path>
      <path d="M611.18,557.87c-.28,0-.5-.22-.5-.5v-5.49c0-.28,.22-.5,.5-.5s.5,.22,.5,.5v5.49c0,.28-.22,.5-.5,.5Z" fill="#002346"></path>
      <path d="M616.33,557.87c-.28,0-.5-.22-.5-.5v-5.49c0-.28,.22-.5,.5-.5s.5,.22,.5,.5v5.49c0,.28-.22,.5-.5,.5Z" fill="#002346"></path>
      <path d="M621.48,557.87c-.28,0-.5-.22-.5-.5v-5.49c0-.28,.22-.5,.5-.5s.5,.22,.5,.5v5.49c0,.28-.22,.5-.5,.5Z" fill="#002346"></path>
      <path d="M626.62,557.87c-.28,0-.5-.22-.5-.5v-5.49c0-.28,.22-.5,.5-.5s.5,.22,.5,.5v5.49c0,.28-.22,.5-.5,.5Z" fill="#002346"></path>
      <path d="M631.77,557.87c-.28,0-.5-.22-.5-.5v-5.49c0-.28,.22-.5,.5-.5s.5,.22,.5,.5v5.49c0,.28-.22,.5-.5,.5Z" fill="#002346"></path>
      <path d="M636.92,557.87c-.28,0-.5-.22-.5-.5v-5.49c0-.28,.22-.5,.5-.5s.5,.22,.5,.5v5.49c0,.28-.22,.5-.5,.5Z" fill="#002346"></path>
      <path d="M642.07,557.87c-.28,0-.5-.22-.5-.5v-5.49c0-.28,.22-.5,.5-.5s.5,.22,.5,.5v5.49c0,.28-.22,.5-.5,.5Z" fill="#002346"></path>
    </g>
    <g>
      <g>
        <rect x="585.44" y="569.87" width="62.6" height="9.51" rx="1.92" ry="1.92" fill="#08294E"></rect>
        <path d="M646.12,579.88h-58.76c-1.33,0-2.42-1.09-2.42-2.42v-5.67c0-1.33,1.09-2.42,2.42-2.42h58.76c1.33,0,2.42,1.09,2.42,2.42v5.67c0,1.33-1.09,2.42-2.42,2.42Zm-58.76-9.51c-.78,0-1.42,.64-1.42,1.42v5.67c0,.78,.64,1.42,1.42,1.42h58.76c.78,0,1.42-.64,1.42-1.42v-5.67c0-.78-.64-1.42-1.42-1.42h-58.76Z" fill="#002346"></path>
      </g>
      <path d="M590.59,577.87c-.28,0-.5-.22-.5-.5v-5.49c0-.28,.22-.5,.5-.5s.5,.22,.5,.5v5.49c0,.28-.22,.5-.5,.5Z" fill="#002346"></path>
      <path d="M595.74,577.87c-.28,0-.5-.22-.5-.5v-5.49c0-.28,.22-.5,.5-.5s.5,.22,.5,.5v5.49c0,.28-.22,.5-.5,.5Z" fill="#002346"></path>
      <path d="M600.89,577.87c-.28,0-.5-.22-.5-.5v-5.49c0-.28,.22-.5,.5-.5s.5,.22,.5,.5v5.49c0,.28-.22,.5-.5,.5Z" fill="#002346"></path>
      <path d="M606.03,577.87c-.28,0-.5-.22-.5-.5v-5.49c0-.28,.22-.5,.5-.5s.5,.22,.5,.5v5.49c0,.28-.22,.5-.5,.5Z" fill="#002346"></path>
      <path d="M611.18,577.87c-.28,0-.5-.22-.5-.5v-5.49c0-.28,.22-.5,.5-.5s.5,.22,.5,.5v5.49c0,.28-.22,.5-.5,.5Z" fill="#002346"></path>
      <path d="M616.33,577.87c-.28,0-.5-.22-.5-.5v-5.49c0-.28,.22-.5,.5-.5s.5,.22,.5,.5v5.49c0,.28-.22,.5-.5,.5Z" fill="#002346"></path>
      <path d="M621.48,577.87c-.28,0-.5-.22-.5-.5v-5.49c0-.28,.22-.5,.5-.5s.5,.22,.5,.5v5.49c0,.28-.22,.5-.5,.5Z" fill="#002346"></path>
      <path d="M626.62,577.87c-.28,0-.5-.22-.5-.5v-5.49c0-.28,.22-.5,.5-.5s.5,.22,.5,.5v5.49c0,.28-.22,.5-.5,.5Z" fill="#002346"></path>
      <path d="M631.77,577.87c-.28,0-.5-.22-.5-.5v-5.49c0-.28,.22-.5,.5-.5s.5,.22,.5,.5v5.49c0,.28-.22,.5-.5,.5Z" fill="#002346"></path>
      <path d="M636.92,577.87c-.28,0-.5-.22-.5-.5v-5.49c0-.28,.22-.5,.5-.5s.5,.22,.5,.5v5.49c0,.28-.22,.5-.5,.5Z" fill="#002346"></path>
      <path d="M642.07,577.87c-.28,0-.5-.22-.5-.5v-5.49c0-.28,.22-.5,.5-.5s.5,.22,.5,.5v5.49c0,.28-.22,.5-.5,.5Z" fill="#002346"></path>
    </g>
    <g>
      <g>
        <rect x="593.44" y="559.87" width="62.6" height="9.51" rx="1.92" ry="1.92" fill="#08294E"></rect>
        <path d="M654.12,569.88h-58.76c-1.33,0-2.42-1.09-2.42-2.42v-5.67c0-1.33,1.09-2.42,2.42-2.42h58.76c1.33,0,2.42,1.09,2.42,2.42v5.67c0,1.33-1.09,2.42-2.42,2.42Zm-58.76-9.51c-.78,0-1.42,.64-1.42,1.42v5.67c0,.78,.64,1.42,1.42,1.42h58.76c.78,0,1.42-.64,1.42-1.42v-5.67c0-.78-.64-1.42-1.42-1.42h-58.76Z" fill="#002346"></path>
      </g>
      <path d="M598.59,567.87c-.28,0-.5-.22-.5-.5v-5.49c0-.28,.22-.5,.5-.5s.5,.22,.5,.5v5.49c0,.28-.22,.5-.5,.5Z" fill="#002346"></path>
      <path d="M603.74,567.87c-.28,0-.5-.22-.5-.5v-5.49c0-.28,.22-.5,.5-.5s.5,.22,.5,.5v5.49c0,.28-.22,.5-.5,.5Z" fill="#002346"></path>
      <path d="M608.89,567.87c-.28,0-.5-.22-.5-.5v-5.49c0-.28,.22-.5,.5-.5s.5,.22,.5,.5v5.49c0,.28-.22,.5-.5,.5Z" fill="#002346"></path>
      <path d="M614.03,567.87c-.28,0-.5-.22-.5-.5v-5.49c0-.28,.22-.5,.5-.5s.5,.22,.5,.5v5.49c0,.28-.22,.5-.5,.5Z" fill="#002346"></path>
      <path d="M619.18,567.87c-.28,0-.5-.22-.5-.5v-5.49c0-.28,.22-.5,.5-.5s.5,.22,.5,.5v5.49c0,.28-.22,.5-.5,.5Z" fill="#002346"></path>
      <path d="M624.33,567.87c-.28,0-.5-.22-.5-.5v-5.49c0-.28,.22-.5,.5-.5s.5,.22,.5,.5v5.49c0,.28-.22,.5-.5,.5Z" fill="#002346"></path>
      <path d="M629.48,567.87c-.28,0-.5-.22-.5-.5v-5.49c0-.28,.22-.5,.5-.5s.5,.22,.5,.5v5.49c0,.28-.22,.5-.5,.5Z" fill="#002346"></path>
      <path d="M634.62,567.87c-.28,0-.5-.22-.5-.5v-5.49c0-.28,.22-.5,.5-.5s.5,.22,.5,.5v5.49c0,.28-.22,.5-.5,.5Z" fill="#002346"></path>
      <path d="M639.77,567.87c-.28,0-.5-.22-.5-.5v-5.49c0-.28,.22-.5,.5-.5s.5,.22,.5,.5v5.49c0,.28-.22,.5-.5,.5Z" fill="#002346"></path>
      <path d="M644.92,567.87c-.28,0-.5-.22-.5-.5v-5.49c0-.28,.22-.5,.5-.5s.5,.22,.5,.5v5.49c0,.28-.22,.5-.5,.5Z" fill="#002346"></path>
      <path d="M650.07,567.87c-.28,0-.5-.22-.5-.5v-5.49c0-.28,.22-.5,.5-.5s.5,.22,.5,.5v5.49c0,.28-.22,.5-.5,.5Z" fill="#002346"></path>
    </g>
  </g>
  <g>
    <circle cx="161.91" cy="269.8" r="11.22" fill="#002346"></circle>
    <path d="M161.91,281.52c-6.46,0-11.72-5.26-11.72-11.72s5.26-11.72,11.72-11.72,11.72,5.26,11.72,11.72-5.26,11.72-11.72,11.72Zm0-22.44c-5.91,0-10.72,4.81-10.72,10.72s4.81,10.72,10.72,10.72,10.72-4.81,10.72-10.72-4.81-10.72-10.72-10.72Z" fill="#002346"></path>
  </g>
  <g>
    <circle cx="172.55" cy="278.14" r="11.22" fill="#08294E"></circle>
    <path d="M172.55,289.86c-6.46,0-11.72-5.26-11.72-11.72s5.26-11.72,11.72-11.72,11.72,5.26,11.72,11.72-5.26,11.72-11.72,11.72Zm0-22.44c-5.91,0-10.72,4.81-10.72,10.72s4.81,10.72,10.72,10.72,10.72-4.81,10.72-10.72-4.81-10.72-10.72-10.72Z" fill="#002346"></path>
  </g>
  <g>
    <rect x="500.21" y="384.15" width="238.49" height="115.19" transform="translate(-115.29 639.26) rotate(-50.54)" fill="#08294E"></rect>
    <path d="M588.21,571.12l-89.71-73.84,.32-.39,151.89-184.52,89.71,73.84-.32,.39-151.89,184.52Zm-88.3-73.98l88.16,72.57,150.93-183.36-88.16-72.57-150.93,183.36Z" fill="#002346"></path>
  </g>
  <g>
    <path d="M621.83,429.56c4.22,3.48,2.25,8,.31,12.07l6.13,5c1.23-1.9,2.05-4.04,2.4-6.27l4.09,1.24c-.44,2.76-1.56,5.37-3.25,7.6l3.36,2.78-2.05,2.48-3.42-2.8c-4.36,4.32-8.9,4.32-12,1.84-4.22-3.48-2.34-8-.39-12l-6.07-5c-1.63,2.36-2.57,5.13-2.69,8l-4.18-1.16c-.13-2.7,1.33-6.39,3.6-9.5l-3.38-2.78,2.06-2.49,3.39,2.8c4.42-4.36,8.96-4.44,12.09-1.81Zm-1,20.23c1.32,1.11,3.17,1.09,5.27-.79l-5.39-4.44c-.96,2.18-1.19,4.1,.09,5.23h.03Zm-2.47-16.65c-1.32-1.07-3.12-1-5.28,1l5.38,4.41c1-2.24,1.37-4.14-.1-5.38v-.03Z" fill="#fff"></path>
    <path d="M622.11,455.67c-1.97,0-3.7-.72-5.02-1.78-4.6-3.79-2.38-8.8-.7-12.26l-5.34-4.4c-1.4,2.18-2.19,4.69-2.3,7.28l-.03,.63-5.13-1.42-.02-.36c-.13-2.65,1.18-6.23,3.42-9.43l-3.41-2.8,2.7-3.26,3.43,2.83c4.16-3.9,8.9-4.5,12.43-1.52,4.51,3.72,2.36,8.62,.61,12.31l5.39,4.39c1.03-1.73,1.72-3.61,2.03-5.6l.09-.57,5.06,1.53-.07,.43c-.43,2.68-1.48,5.24-3.06,7.44l3.38,2.8-2.69,3.25-3.46-2.83c-2.56,2.42-5.09,3.34-7.32,3.34Zm-11.27-19.9l6.79,5.6-.17,.35c-2.05,4.2-3.57,8.24,.26,11.4,3.24,2.59,7.58,1.9,11.33-1.81l.32-.32,3.38,2.77,1.41-1.71-3.34-2.77,.29-.38c1.55-2.04,2.61-4.43,3.08-6.95l-3.13-.95c-.41,2.11-1.2,4.09-2.38,5.9l-.3,.47-6.87-5.6,.17-.35c2.12-4.45,3.57-8.38-.18-11.47h0c-3.25-2.73-7.52-2.07-11.42,1.78l-.32,.32-3.35-2.77-1.42,1.72,3.36,2.76-.28,.38c-2.14,2.94-3.49,6.35-3.51,8.82l3.23,.9c.23-2.74,1.17-5.37,2.74-7.64l.31-.45Zm11.96,15.27c-.77,0-1.49-.25-2.14-.75h-.04l-.14-.12c-1.33-1.17-1.4-3.12-.22-5.81l.27-.6,6.35,5.23-.43,.39c-1.23,1.1-2.48,1.66-3.64,1.66Zm-1.76-1.71l.11,.08c1.14,.96,2.6,.81,4.17-.4l-4.4-3.63c-.7,1.84-.66,3.17,.13,3.95Zm-2.39-9.98l-6.33-5.19,.42-.39c2.92-2.71,4.97-1.8,5.93-1.02l.19,.2c1.64,1.58,.9,3.92,.06,5.81l-.27,.6Zm-4.79-5.22l4.41,3.61c.83-2.09,.76-3.36-.22-4.19l-.18-.16c-1.35-.93-2.85-.21-4.01,.74Z" fill="#002346"></path>
  </g>
  <g>
    <path d="M517.52,485.27c5.66,4.64,6.49,13,1.85,18.66,0,0,0,0,0,0l58.33,48c4.65-5.62,12.97-6.43,18.62-1.82l125-152c-5.57-4.65-6.36-12.91-1.79-18.54l-58.33-48h0c-4.66,5.65-13.01,6.45-18.65,1.79,0,0-.01,0-.02-.01l-125,151.9h0Zm176.8-73.6c-1.29-1.04-1.5-2.93-.46-4.22,.02-.02,.03-.04,.05-.06l8.43-10.25h0c1.03-1.29,2.92-1.51,4.22-.47,.02,.02,.04,.03,.06,.05h0c1.29,1.03,1.51,2.92,.47,4.22-.02,.02-.03,.04-.05,.06l-8.44,10.25h0c-1.03,1.29-2.92,1.51-4.22,.47-.02-.02-.04-.03-.06-.05Zm-91.08,49.73c-10.84-8.95-12.38-24.99-3.44-35.84h0c8.94-10.86,24.99-12.41,35.85-3.47,10.86,8.94,12.41,24.99,3.47,35.85-8.94,10.86-24.99,12.41-35.85,3.47,0,0,0,0,0,0h-.03Zm-71,25.36c-1.28-1.08-1.44-2.99-.37-4.28l8.44-10.27c1.07-1.3,2.98-1.48,4.28-.41,1.3,1.07,1.48,2.98,.41,4.28h0l-8.44,10.26h0c-1.03,1.29-2.92,1.51-4.22,.47-.02-.02-.04-.03-.06-.05h-.04Z" fill="#fff"></path>
    <path d="M577.76,552.64l-59.06-48.6,.25-.38c2.2-2.68,3.2-6,2.87-9.4-.34-3.39-1.97-6.45-4.61-8.61l-.18-.15v-.43l.11-.14,125.32-152.29,.39,.32c5.44,4.49,13.49,3.71,17.96-1.71l.32-.39,59.1,48.63-.31,.39c-4.38,5.39-3.61,13.39,1.72,17.84l.38,.32-.32,.38-125.32,152.38-.39-.31c-5.42-4.42-13.46-3.63-17.92,1.75l-.32,.38Zm-57.7-48.78l57.57,47.38c4.76-5.34,12.9-6.14,18.61-1.82l124.38-151.25c-5.28-4.75-6.07-12.85-1.79-18.52l-57.57-47.38c-4.78,5.39-12.95,6.17-18.66,1.78l-124.38,151.15c2.62,2.31,4.25,5.47,4.59,8.97,.35,3.5-.63,6.92-2.75,9.7Zm14.16-15.9c-.74,0-1.48-.23-2.11-.71h0l-.18-.12c-1.48-1.26-1.67-3.49-.43-4.98l8.44-10.27c.6-.73,1.45-1.18,2.39-1.27,.95-.09,1.86,.19,2.59,.79s1.18,1.45,1.27,2.39-.19,1.86-.79,2.59l-8.44,10.26c-.69,.86-1.71,1.31-2.73,1.31Zm-1.78-1.71h.03l.14,.11c1.14,.91,2.71,.73,3.57-.34l8.44-10.27c.43-.52,.63-1.18,.57-1.86-.07-.68-.39-1.29-.91-1.72-.52-.43-1.18-.63-1.86-.57-.68,.06-1.29,.39-1.72,.91l-8.44,10.27c-.86,1.03-.77,2.54,.18,3.46Zm86.98-18.55c-5.97,0-11.71-2.04-16.39-5.87l-.1-.07c-11.03-9.11-12.61-25.5-3.51-36.54,4.41-5.35,10.64-8.67,17.54-9.34,6.9-.67,13.66,1.39,19.01,5.8,5.36,4.41,8.67,10.64,9.34,17.54,.67,6.9-1.39,13.66-5.8,19.01-4.41,5.35-10.64,8.67-17.54,9.34-.85,.08-1.7,.12-2.55,.12Zm-15.8-6.68c10.63,8.73,26.38,7.2,35.13-3.42,8.75-10.63,7.22-26.4-3.4-35.15-5.15-4.24-11.64-6.22-18.28-5.58-6.64,.64-12.63,3.83-16.87,8.98-8.73,10.59-7.24,26.31,3.3,35.08l.13,.09Zm92.64-48.17c-.77,0-1.54-.25-2.18-.76l-.07-.05c-1.5-1.21-1.75-3.42-.54-4.92l8.49-10.32c1.2-1.5,3.41-1.75,4.91-.55,.79,.64,1.25,1.47,1.36,2.4,.1,.93-.16,1.84-.74,2.57l-8.5,10.32c-.69,.86-1.71,1.31-2.73,1.31Zm-1.56-1.55c1.08,.86,2.65,.68,3.51-.39l8.44-10.26c.46-.58,.65-1.23,.58-1.9-.08-.66-.4-1.26-.93-1.68-1.14-.91-2.72-.73-3.58,.34l-8.43,10.26c-.91,1.13-.74,2.71,.34,3.57h.01s-.33,.39-.33,.39l.38-.34Z" fill="#002346"></path>
  </g>
  <g>
    <rect x="501.21" y="353.01" width="239.31" height="115.59" transform="translate(-44.67 744.41) rotate(-60.11)" fill="#08294E"></rect>
    <path d="M611.54,544.02l-101.08-58.09,.25-.43,119.49-207.92,101.08,58.09-.25,.43-119.49,207.92Zm-99.72-58.46l99.35,57.1,118.75-206.62-99.35-57.1-118.75,206.62Z" fill="#002346"></path>
  </g>
  <g>
    <path d="M619.78,401.5c4.75,2.73,3.51,7.54,2.27,11.84l6.87,4c.91-2.07,1.37-4.32,1.36-6.58l4.24,.6c.04,2.82-.62,5.6-1.92,8.1l3.72,2.2-1.61,2.78-3.85-2.23c-3.57,5-8.07,5.74-11.53,3.73-4.73-2.74-3.58-7.5-2.34-11.82l-6.8-3.93c-1.24,2.58-1.71,5.46-1.36,8.3l-4.33-.46c-.47-2.62,.29-6.48,2-9.93l-3.72-2.18,1.61-2.79,3.82,2.21c3.65-5.04,8.12-5.88,11.57-3.84Zm1.33,15.05c-.51,2.3-.46,4.26,1,5.1s3.31,.54,5.08-1.65l-6.05-3.5-.03,.05Zm-4.14-10.89c-1.46-.84-3.24-.46-5.05,1.76l6,3.48c.61-2.37,.7-4.32-1-5.29l.05,.05Z" fill="#fff"></path>
    <path d="M623.11,427.48c-1.48,0-2.87-.43-4.03-1.1-5.09-2.95-3.79-8.11-2.68-12.01l-5.99-3.46c-1.03,2.37-1.41,4.96-1.09,7.53l.08,.62-5.33-.57-.07-.37c-.48-2.66,.23-6.39,1.84-9.82l-3.75-2.2,2.11-3.65,3.87,2.24c4.13-5.42,8.86-5.44,11.96-3.62,5.05,2.9,3.73,8.1,2.61,12.04l6.04,3.52c.74-1.87,1.11-3.84,1.1-5.86v-.58s5.23,.74,5.23,.74v.43c.05,2.73-.56,5.46-1.76,7.92l3.74,2.21-2.11,3.64-3.89-2.26c-2.53,3.37-5.36,4.61-7.89,4.61Zm-13.14-17.99l7.6,4.4-.11,.38c-1.35,4.7-2.12,8.8,2.11,11.25,3.62,2.11,7.79,.73,10.87-3.59l.26-.37,3.81,2.21,1.11-1.92-3.7-2.19,.22-.42c1.2-2.29,1.84-4.85,1.86-7.43l-3.25-.46c-.06,2.15-.53,4.23-1.4,6.21l-.22,.51-7.69-4.48,.11-.37c1.37-4.74,2.16-8.86-2.04-11.27h0c-3.55-2.1-7.73-.69-10.91,3.7l-.26,.37-3.78-2.19-1.11,1.93,3.69,2.16-.21,.42c-1.56,3.16-2.33,6.73-2.01,9.25l3.33,.35c-.23-2.74,.28-5.47,1.47-7.95l.23-.49Zm13.71,13.1c-.62,0-1.23-.17-1.82-.51-1.49-.85-1.89-2.7-1.24-5.64l.09-.2,.25-.42,6.98,4.04-.37,.45c-1.21,1.5-2.57,2.27-3.9,2.27Zm-2.2-5.32c-.37,2.1-.08,3.39,.88,3.94,1.29,.74,2.71,.35,4.06-1.09l-4.94-2.86Zm-3.24-5.61l-7.08-4.1,.37-.45c1.42-1.75,2.74-2.31,3.8-2.35l-1.52-1.49,3.36,1.91c.53,.3,.91,.69,1.17,1.13l1.73,1.69-1.36-.78c.27,1.15,.03,2.51-.3,3.8l-.17,.64Zm-5.55-4.37l4.9,2.84c.45-2.06,.25-3.24-.66-3.92l-.21-.12c-1.53-.88-2.98,.07-4.03,1.2Z" fill="#002346"></path>
  </g>
  <g>
    <path d="M526,473.54c6.34,3.66,8.5,11.77,4.84,18.1v.02s65.4,37.87,65.4,37.87h0c3.66-6.35,11.77-8.53,18.12-4.87,0,0,0,0,0,0l98.57-170.27h0c-6.33-3.67-8.49-11.78-4.83-18.12l-65.41-37.87h0c-3.67,6.33-11.77,8.49-18.11,4.83l-98.6,170.3h.01Zm162.41-101.38c-1.44-.82-1.94-2.65-1.12-4.09,0-.02,.02-.03,.03-.05l6.65-11.51h0c.82-1.44,2.65-1.95,4.09-1.14,.02,.01,.04,.02,.06,.04h0c1.44,.81,1.96,2.64,1.14,4.09-.01,.02-.03,.05-.04,.07l-6.65,11.49h0c-.81,1.44-2.64,1.96-4.09,1.14-.02-.01-.05-.03-.07-.04h0Zm-81.71,63.88c-12.11-7.05-16.25-22.55-9.27-34.7v-.06c7.06-12.17,22.65-16.31,34.81-9.25,12.17,7.06,16.31,22.65,9.25,34.81-7.06,12.17-22.65,16.31-34.81,9.25,0,0,0,0,0,0l.03-.05Zm-66,36.61c-1.42-.85-1.88-2.69-1.03-4.11,.01-.02,.02-.04,.03-.06l6.65-11.49,.1-.19c.89-1.42,2.77-1.86,4.2-.96,1.42,.89,1.86,2.77,.96,4.2l-6.65,11.54h0c-.81,1.44-2.64,1.96-4.08,1.15-.02-.01-.04-.03-.07-.04l-.11-.03Z" fill="#fff"></path>
    <path d="M596.43,530.21l-.43-.25-65.87-38.14,.3-.44c1.7-2.94,2.15-6.37,1.27-9.67-.88-3.29-2.99-6.04-5.94-7.74l-.11-.09-.27-.27,.19-.33,98.85-170.73,.43,.25c6.08,3.52,13.9,1.43,17.43-4.65l.25-.43,66.27,38.37-.25,.43c-3.52,6.09-1.43,13.91,4.65,17.44l.43,.25-.25,.43-98.85,170.76-.45-.34c-6.06-3.49-13.88-1.38-17.4,4.72l-.25,.43Zm-64.92-38.74l64.56,37.38c1.85-2.96,4.71-5.08,8.1-5.99,3.39-.91,6.93-.51,10.02,1.13l98.08-169.42c-6.09-3.83-8.2-11.76-4.83-18.11l-64.56-37.38c-3.83,6.08-11.75,8.2-18.1,4.83l-98.11,169.45c2.96,1.85,5.08,4.71,5.98,8.1,.91,3.39,.5,6.93-1.15,10.01Zm10.83-17.88c-.59,0-1.18-.15-1.71-.45l-.19-.07c-1.66-.99-2.2-3.14-1.21-4.8l6.77-11.71c.52-.83,1.31-1.39,2.23-1.61,.92-.21,1.87-.05,2.68,.45,1.66,1.04,2.16,3.23,1.12,4.88l-6.64,11.52c-.46,.81-1.2,1.4-2.1,1.65-.31,.09-.63,.13-.95,.13Zm-1.44-1.42l.17,.07c.63,.36,1.31,.44,1.95,.25,.64-.18,1.18-.6,1.5-1.18l6.65-11.54c.75-1.2,.39-2.78-.8-3.52-.58-.36-1.26-.47-1.92-.32-.66,.15-1.23,.55-1.59,1.13l-.08,.16-6.66,11.51c-.38,.63-.48,1.31-.32,1.95,.16,.63,.54,1.16,1.08,1.5Zm78.52-32.16c-4.42,0-8.9-1.13-12.99-3.5l-.44-.26,.03-.05c-11.93-7.26-16-22.83-9.08-35.01h0s.07-.18,.07-.18c3.48-6,9.09-10.28,15.8-12.06,6.71-1.78,13.7-.84,19.7,2.64,6,3.48,10.29,9.09,12.07,15.8,1.78,6.7,.84,13.7-2.64,19.7-4.81,8.29-13.54,12.93-22.51,12.93Zm-12.05-4.12c11.87,6.55,26.87,2.44,33.69-9.31,3.35-5.77,4.25-12.5,2.54-18.94-1.71-6.45-5.83-11.84-11.6-15.19-5.77-3.35-12.5-4.25-18.94-2.54-6.4,1.7-11.77,5.78-15.12,11.49l-.06,.17c-6.82,11.87-2.74,27.13,9.09,34.02l.44,.26-.03,.04Zm82.59-62.82c-.58,0-1.17-.14-1.71-.45l-.08-.04c-.81-.46-1.39-1.22-1.64-2.12s-.13-1.85,.34-2.66l6.68-11.56c.46-.81,1.21-1.4,2.11-1.65,.9-.25,1.85-.13,2.66,.32,.88,.49,1.46,1.24,1.72,2.14s.14,1.85-.32,2.66l-6.7,11.57c-.64,1.14-1.83,1.78-3.05,1.78Zm6.62-17.6c-.22,0-.44,.03-.66,.09-.64,.18-1.18,.6-1.51,1.18l-6.65,11.51c-.36,.62-.44,1.3-.27,1.94,.18,.64,.59,1.18,1.17,1.51h.02s-.26,.43-.26,.43l.3-.4c1.21,.68,2.75,.26,3.42-.94l6.65-11.5c.37-.65,.45-1.33,.27-1.97s-.6-1.18-1.18-1.51c-.43-.24-.87-.36-1.3-.36Z" fill="#002346"></path>
  </g>
  <rect x="490.35" y="334.58" width="238.49" height="115.19" transform="translate(40.24 840.78) rotate(-70.99)" fill="#08294E"></rect>
  <g>
    <rect x="490.35" y="334.58" width="238.49" height="115.19" transform="translate(40.24 840.78) rotate(-70.99)" fill="#08294E"></rect>
    <path d="M625.52,524.31l-.47-.16-109.38-37.68,78.01-226.43,.47,.16,109.38,37.68-78.01,226.43Zm-108.58-38.47l107.96,37.2,77.36-224.54-107.96-37.2-77.36,224.54Z" fill="#002346"></path>
  </g>
  <g>
    <path d="M607.52,379.85c5.16,1.76,4.91,6.7,4.49,11.17l7.51,2.64c.49-2.21,.52-4.49,.07-6.71l4.27-.24c.59,2.76,.48,5.62-.32,8.33l4.12,1.43-1.06,3-4.08-1.42c-2.55,5.6-6.81,7.21-10.6,5.91-5.16-1.81-5-6.7-4.56-11.17l-7.45-2.57c-.71,2.77-.62,5.69,.26,8.42l-4.32,.37c-1.07-2.51-1-6.44,0-10.16l-4.13-1.43,1.05-3,4.16,1.43c2.59-5.64,6.8-7.3,10.59-6Zm4.23,14.52c-.11,2.37,.32,4.28,2,4.84,1.68,.56,3.35-.11,4.68-2.6l-6.62-2.27-.06,.03Zm-6.23-9.88c-1.6-.55-3.26,.17-4.58,2.63l6.58,2.26c.14-2.41-.16-4.33-2-5v.11Z" fill="#fff"></path>
    <path d="M614.4,404.88c-.92,0-1.82-.16-2.64-.44-5.25-1.84-5.37-6.55-4.93-11.3l-6.56-2.26c-.55,2.53-.42,5.15,.38,7.61l.19,.6-5.31,.46-.14-.33c-1.03-2.43-1.08-6.24-.14-10.03l-4.17-1.44,1.38-3.94,4.21,1.45c2.97-6.07,7.6-7.02,11.01-5.85h0c5.55,1.89,5.22,7.43,4.86,11.3l6.6,2.32c.37-1.97,.35-3.97-.05-5.95l-.11-.57,5.27-.3,.09,.42c.57,2.68,.5,5.47-.2,8.12l4.15,1.44-1.39,3.94-4.12-1.44c-2.22,4.58-5.45,6.21-8.38,6.21Zm-14.84-15.31l8.34,2.88-.04,.39c-.46,4.67-.48,9,4.23,10.65,3.95,1.36,7.78-.81,9.98-5.65l.19-.42,4.04,1.41,.73-2.06-4.1-1.42,.14-.46c.73-2.48,.87-5.12,.39-7.66l-3.27,.18c.35,2.12,.29,4.25-.18,6.35l-.12,.55-8.41-2.96,.04-.39c.46-4.89,.46-9.07-4.15-10.65h0c-3.96-1.36-7.7,.78-9.97,5.74l-.19,.41-4.12-1.42-.72,2.06,4.1,1.42-.12,.45c-.96,3.57-1.01,7.16-.15,9.5l3.33-.29c-.74-2.64-.77-5.43-.09-8.1l.13-.53Zm15.26,10.32c-.47,0-.89-.09-1.23-.21-1.71-.57-2.48-2.32-2.34-5.34v-.3s.53-.25,.53-.25l7.37,2.53-.28,.52c-1.3,2.44-2.84,3.04-4.05,3.04Zm-2.59-4.88c0,2.13,.55,3.35,1.67,3.72,1.46,.48,2.72-.14,3.79-1.85l-5.46-1.87Zm-4.25-4.95l-7.76-2.67,.28-.52c1.52-2.84,3.3-3.21,4.52-3.03v-.19l.67,.24c2.28,.83,2.46,3.25,2.33,5.5l-.04,.66Zm-6.3-3.22l5.37,1.84c.04-1.85-.3-2.94-1.09-3.52l-.6-.21c-1.67-.57-2.88,.6-3.68,1.88Z" fill="#002346"></path>
  </g>
  <g>
    <path d="M529.28,468.56c6.93,2.38,10.62,9.93,8.24,16.86l71.46,24.62h0c2.38-6.92,9.91-10.61,16.83-8.23,0,0,.02,0,.03,0l64.08-186h0c-6.93-2.39-10.61-9.94-8.22-16.87l-71.46-24.61h0c-2.39,6.93-9.94,10.61-16.87,8.22l-64.07,186h-.02Zm138-134.57l4.34-12.56c.52-1.57,2.22-2.42,3.79-1.9,.02,0,.05,.02,.07,.02h0c1.57,.52,2.43,2.22,1.91,3.79,0,.03-.02,.05-.03,.08l-4.32,12.55c-.55,1.59-2.29,2.43-3.88,1.88s-2.43-2.29-1.88-3.88v.02Zm-66.1,82.26c-13.29-4.58-20.35-19.07-15.77-32.36h0c4.58-13.29,19.07-20.36,32.37-15.77,13.29,4.58,20.36,19.07,15.77,32.37-4.58,13.29-19.07,20.35-32.36,15.78h-.01Zm-57.6,48.56h-.08c-1.56-.56-2.36-2.28-1.8-3.84,0,0,0-.02,.01-.03l4.31-12.55,.09-.25c.61-1.56,2.38-2.33,3.94-1.72,1.56,.61,2.33,2.38,1.72,3.94h0l-4.36,12.6c-.52,1.57-2.22,2.43-3.79,1.91-.03,0-.05-.02-.08-.03l.04-.03Z" fill="#fff"></path>
    <path d="M609.29,510.68l-72.41-24.95,.16-.47c2.29-6.66-1.27-13.94-7.93-16.22l-2.83-.97h2.66l64.12-186.14,.47,.16c6.66,2.29,13.94-1.25,16.23-7.91l.16-.47,72.41,24.94-.16,.47c-2.29,6.66,1.25,13.94,7.91,16.23l.47,.16-.16,.47-64.25,186.49-.48-.18c-3.23-1.11-6.69-.9-9.75,.6-3.06,1.5-5.35,4.09-6.46,7.31l-.16,.47Zm-71.14-25.57l70.53,24.3c1.25-3.26,3.65-5.88,6.79-7.42,3.16-1.54,6.71-1.82,10.05-.8l63.76-185.07c-6.72-2.59-10.32-9.97-8.21-16.86l-70.53-24.29c-2.59,6.72-9.97,10.31-16.86,8.21l-63.75,185.08c6.71,2.59,10.31,9.96,8.22,16.84Zm6.41-19.58c-.36,0-.73-.06-1.1-.18l-.91-.3,.1-.09c-1.36-.86-1.99-2.58-1.42-4.15l4.41-12.83c.72-1.83,2.78-2.73,4.59-2.02,.88,.35,1.57,1.01,1.95,1.88,.38,.87,.4,1.83,.05,2.71l-4.35,12.58c-.48,1.46-1.85,2.4-3.32,2.4Zm-.97-1.21h1.42l-.25,.2c.32-.02,.63-.11,.93-.26,.6-.3,1.04-.81,1.25-1.45l4.36-12.61c.25-.65,.24-1.34-.03-1.96-.27-.62-.77-1.1-1.4-1.35-1.3-.51-2.78,.13-3.29,1.44l-.08,.24-4.31,12.54c-.47,1.3,.17,2.71,1.41,3.21Zm65.87-46.17c-2.8,0-5.64-.46-8.43-1.42l-.12-.05c-13.45-4.71-20.61-19.47-15.96-32.96,4.67-13.53,19.47-20.75,33-16.08,6.56,2.26,11.84,6.94,14.88,13.17,3.04,6.23,3.46,13.28,1.21,19.83-3.7,10.74-13.79,17.5-24.57,17.5Zm-7.99-2.32c12.98,4.4,27.14-2.53,31.61-15.5,2.17-6.3,1.76-13.07-1.16-19.07-2.92-5.99-8-10.49-14.3-12.66-13.01-4.49-27.25,2.45-31.73,15.46-4.48,13.01,2.46,27.24,15.46,31.72l.12,.05Zm68.7-77.31c-.39,0-.79-.07-1.17-.2-.9-.31-1.62-.95-2.03-1.8,0-.01-.01-.02-.02-.04l-.17,.49v-.91c-.24-.73-.23-1.51,.03-2.25l.97-2.8h0s3.37-9.74,3.37-9.74c.61-1.83,2.59-2.82,4.42-2.22,.96,.32,1.68,.94,2.1,1.77s.49,1.78,.2,2.67l-.03,.1-4.32,12.54c-.31,.9-.95,1.62-1.8,2.03-.49,.24-1.02,.36-1.54,.36Zm-2.47-4.2c-.16,.59-.1,1.21,.17,1.77,.3,.61,.81,1.07,1.46,1.3,.64,.22,1.33,.18,1.95-.11,.61-.3,1.07-.81,1.3-1.46l4.32-12.55c.24-.71,.19-1.39-.12-1.98-.3-.6-.81-1.04-1.45-1.25-1.38-.46-2.79,.26-3.23,1.56l-4.4,12.73Z" fill="#002346"></path>
  </g>
  <g opacity=".1">
    <path d="M527.8,513.31c12.04-11.84,31.39-11.67,43.23,.37,11.66,11.86,11.7,30.86,.09,42.77l-47-38.69c1.09-1.59,2.32-3.08,3.68-4.45Z"></path>
  </g>
  <g>
    <circle cx="607.84" cy="453.62" r="30.57" fill="#08294E"></circle>
    <path d="M607.84,484.69c-17.13,0-31.07-13.94-31.07-31.07s13.94-31.07,31.07-31.07,31.07,13.94,31.07,31.07-13.94,31.07-31.07,31.07Zm0-61.14c-16.58,0-30.07,13.49-30.07,30.07s13.49,30.07,30.07,30.07,30.07-13.49,30.07-30.07-13.49-30.07-30.07-30.07Z" fill="#002346"></path>
  </g>
  <g>
    <g>
      <path d="M605.94,450.74v-7c-2.87,.46-4.08,1.77-4.08,3.46,0,1.92,1.72,2.83,4.08,3.54Z" fill="#fff"></path>
      <path d="M606.44,451.41l-.64-.19c-2.19-.66-4.44-1.65-4.44-4.02,0-1.21,.58-3.33,4.5-3.95l.58-.09v8.26Zm-1-7.07c-2.04,.45-3.08,1.41-3.08,2.86,0,1.28,.88,2.11,3.08,2.86v-5.71Z" fill="#002346"></path>
    </g>
    <g>
      <path d="M613.17,459.7c0-1.89-1.73-2.74-4-3.42v7c2.79-.43,4-1.69,4-3.58Z" fill="#fff"></path>
      <path d="M608.67,463.86v-8.25l.64,.19c2.26,.68,4.36,1.62,4.36,3.9s-1.49,3.62-4.42,4.07l-.58,.09Zm1-6.9v5.72c2.67-.58,3-1.96,3-2.98,0-1.22-.85-2.01-3-2.74Z" fill="#002346"></path>
    </g>
    <g>
      <path d="M581.74,453.56c0,14.39,11.67,26.06,26.06,26.06,14.39,0,26.05-11.66,26.06-26.05,0-14.39-11.66-26.06-26.05-26.07-14.39,0-26.06,11.66-26.07,26.05h0Zm24.22-14.13v-4.36h3.23v4.36c3.84,.26,7.63,1.49,9.63,3.26l-1.78,4c-2.28-1.73-5-2.77-7.85-3v7.86c4.32,1.06,9,2.48,9,7.94,0,4.01-2.87,7.45-9,8.1v4.45h-3.23v-4.37c-2.83-.12-5.58-.94-8-2.4l1.61-4c1.95,1.14,4.12,1.87,6.37,2.12v-7.94c-4.37-1.05-9.12-2.48-9.12-7.89,0-4,2.95-7.46,9.12-8.14h.02Z" fill="#fff"></path>
      <path d="M607.8,480.12c-14.64,0-26.56-11.91-26.56-26.56h0c0-14.65,11.92-26.56,26.56-26.56h0c7.09,0,13.76,2.77,18.78,7.79s7.77,11.69,7.77,18.78c0,14.64-11.92,26.55-26.56,26.55Zm0-52.12c-14.09,0-25.55,11.46-25.56,25.55h-.5s.5,0,.5,0c0,14.09,11.47,25.56,25.56,25.56s25.55-11.46,25.56-25.55c0-6.83-2.65-13.25-7.48-18.08-4.83-4.83-11.24-7.49-18.07-7.49h0Zm1.89,44.53h-4.23v-4.4c-2.73-.19-5.41-1.03-7.76-2.44l-.37-.22,1.99-4.93,.5,.29c1.74,1.02,3.63,1.69,5.62,1.98v-6.98c-3.77-.91-9.12-2.39-9.12-8.28,0-4.56,3.49-7.83,9.14-8.58v-4.41h4.23v4.4c3.9,.34,7.49,1.61,9.46,3.35l.27,.24-2.19,4.91-.5-.38c-2.06-1.56-4.49-2.54-7.05-2.85v6.92c3.73,.92,9,2.41,9,8.33,0,4.56-3.44,7.81-9,8.54v4.51Zm-3.23-1h2.23v-4.4l.45-.05c5.36-.57,8.55-3.41,8.55-7.6,0-4.93-4.08-6.34-8.62-7.45l-.38-.09v-8.79l.54,.04c2.74,.22,5.36,1.16,7.6,2.73l1.38-3.09c-1.93-1.53-5.43-2.66-9.05-2.9l-.47-.03v-4.33h-2.23v4.67l-.61-.31c-5.34,.63-8.53,3.48-8.53,7.63,0,4.9,4.13,6.3,8.74,7.4l.38,.09v8.89l-.56-.06c-2.14-.24-4.18-.88-6.06-1.9l-1.24,3.07c2.26,1.28,4.8,2.01,7.4,2.11l.48,.02v4.35Z" fill="#002346"></path>
    </g>
  </g>
  <g>
    <path d="M542.34,564.97l-175.58-.84c-21.12-.1-38.16-17.3-38.07-38.42l1.83-440.15c.09-21.13,17.29-38.19,38.42-38.1h.01s.05,0,.05,0l175.52,.77c21.13,.08,38.19,17.28,38.11,38.41,0,0,0,.01,0,.02l-1.86,440.21c-.06,21.12-17.22,38.2-38.34,38.14h0l-.09-.04Z" fill="#002346"></path>
    <path d="M542.53,565.51h-.1l-175.67-.88c-21.36-.1-38.66-17.56-38.57-38.92l1.83-440.15c.04-10.35,4.12-20.07,11.47-27.36,7.31-7.25,17-11.24,27.29-11.24,.06,0,.11,0,.17,0l175.58,.77c21.37,.08,38.69,17.54,38.61,38.91l-1.86,440.23c-.06,21.33-17.43,38.64-38.74,38.64ZM368.84,47.96c-10.08,0-19.52,3.88-26.64,10.95-7.16,7.1-11.13,16.57-11.17,26.65l-1.83,440.15c-.09,20.81,16.76,37.82,37.57,37.92l175.68,.84,.09,.04c20.76,0,37.68-16.87,37.73-37.64l1.86-440.21c.08-20.84-16.79-37.85-37.61-37.93l-175.52-.77c-.05,0-.11,0-.16,0Z" fill="#002346"></path>
  </g>
  <g>
    <path d="M544.31,63.47l-34-.16-99.43-.46h-12l-29.81-.13c-14.79-.07-26.84,11.86-26.91,26.65h0s-1.78,429.69-1.78,429.69c-.06,14.79,11.88,26.83,26.67,26.9h0l175.24,.8c14.79,.05,26.82-11.9,26.87-26.69h0s1.81-429.68,1.81-429.68c.08-14.79-11.85-26.84-26.64-26.92,0,0,0,0-.01,0h-.01Z" fill="#fff"></path>
    <path d="M542.38,547.26h-.09l-175.24-.8c-15.04-.07-27.22-12.36-27.17-27.4l1.78-429.69c.04-7.29,2.91-14.12,8.08-19.25,5.15-5.1,11.96-7.9,19.19-7.9,.05,0,.09,0,.14,0l29.81,.13h12l133.44,.62c15.06,.08,27.23,12.38,27.15,27.42l-1.81,429.68c-.05,15.01-12.28,27.19-27.28,27.19ZM368.94,63.22c-14.43,0-26.21,11.7-26.28,26.15l-1.78,429.69c-.05,14.49,11.69,26.33,26.17,26.4l175.24,.8h.09c14.45,0,26.23-11.73,26.28-26.19l1.81-429.68c.08-14.49-11.65-26.34-26.14-26.42l-.02-.5v.5s-133.43-.62-133.43-.62h-12l-29.81-.13s-.09,0-.13,0Z" fill="#002346"></path>
  </g>
  <path d="M545.61,102.51c0,1.22-.97,2.2-2.19,2.21-1.21,0-2.2-.97-2.21-2.19,0-1.22,.97-2.2,2.19-2.21,0,0,0,0,0,0h0c1.21,0,2.19,.98,2.2,2.19Z" fill="#002346"></path>
  <path d="M545.58,110.45c-.01,1.21-1,2.18-2.21,2.17-1.21-.01-2.18-1-2.17-2.21,.01-1.2,.99-2.17,2.19-2.17,1.21,.01,2.19,1,2.19,2.21Z" fill="#002346"></path>
  <path d="M545.52,118.29c0,1.22-.97,2.2-2.19,2.21s-2.2-.97-2.21-2.19c0-1.21,.97-2.2,2.19-2.21h0c1.21-.01,2.2,.96,2.21,2.17,0,0,0,.01,0,.02Z" fill="#002346"></path>
  <g>
    <rect x="372.1" y="177.4" width="186.79" height="118.5" rx="5.57" ry="5.57" fill="#fff"></rect>
    <path d="M553.32,296.4h-175.65c-3.35,0-6.07-2.72-6.07-6.07v-107.36c0-3.35,2.72-6.07,6.07-6.07h175.65c3.35,0,6.07,2.72,6.07,6.07v107.36c0,3.35-2.72,6.07-6.07,6.07Zm-175.65-118.5c-2.79,0-5.07,2.27-5.07,5.07v107.36c0,2.8,2.27,5.07,5.07,5.07h175.65c2.8,0,5.07-2.27,5.07-5.07v-107.36c0-2.8-2.27-5.07-5.07-5.07h-175.65Z" fill="#002346"></path>
  </g>
  <g>
    <rect x="366.97" y="169.7" width="186.79" height="118.5" rx="5.57" ry="5.57" fill="#e6e7e8"></rect>
    <path d="M548.19,288.7h-175.65c-3.35,0-6.07-2.72-6.07-6.07v-107.36c0-3.35,2.72-6.07,6.07-6.07h175.65c3.35,0,6.07,2.72,6.07,6.07v107.36c0,3.35-2.72,6.07-6.07,6.07Zm-175.65-118.5c-2.79,0-5.07,2.27-5.07,5.07v107.36c0,2.8,2.27,5.07,5.07,5.07h175.65c2.8,0,5.07-2.27,5.07-5.07v-107.36c0-2.8-2.27-5.07-5.07-5.07h-175.65Z" fill="#002346"></path>
  </g>
  <g>
    <rect x="361.05" y="163.31" width="186.79" height="118.5" rx="5.57" ry="5.57" fill="#08294E"></rect>
    <path d="M542.27,282.31h-175.65c-3.35,0-6.07-2.72-6.07-6.07v-107.36c0-3.35,2.72-6.07,6.07-6.07h175.65c3.35,0,6.07,2.72,6.07,6.07v107.36c0,3.35-2.72,6.07-6.07,6.07Zm-175.65-118.5c-2.79,0-5.07,2.27-5.07,5.07v107.36c0,2.8,2.27,5.07,5.07,5.07h175.65c2.79,0,5.07-2.27,5.07-5.07v-107.36c0-2.8-2.27-5.07-5.07-5.07h-175.65Z" fill="#002346"></path>
  </g>
  <path d="M390.16,226.84h-1.64v2.11h-.83v-2.11h-4.53v-.6l4.26-5.34h.92l-4.11,5.18h3.49v-1.85h.8v1.85h1.61l.03,.76Z" fill="#fff"></path>
  <path d="M396.07,226.66c0,1.3-1,2.39-2.92,2.39-1.06,.04-2.09-.32-2.9-1l.42-.66c.67,.63,1.56,.96,2.48,.93,1.3,0,2.08-.62,2.08-1.62s-.69-1.59-2.18-1.59h-.53v-.61l2.23-2.8h-4.12v-.74h5.18v.6l-2.29,2.8c1.69,.16,2.55,1,2.55,2.3Z" fill="#fff"></path>
  <path d="M402.58,226.59c0,1.36-.95,2.44-2.92,2.44-1.05,.04-2.09-.32-2.89-1l.42-.66c.66,.63,1.55,.96,2.46,.93,1.37,0,2.1-.66,2.1-1.64s-.65-1.68-2.7-1.68h-1.71l.42-4h4.4v.68h-3.64l-.28,2.59h1c2.42-.05,3.34,.91,3.34,2.34Z" fill="#fff"></path>
  <path d="M409.68,226.55c-.01,1.39-1.14,2.5-2.53,2.49,0,0,0,0-.01,0h-.21c-2.14,0-3.3-1.49-3.3-4,0-2.74,1.49-4.17,3.68-4.17,.66-.02,1.32,.13,1.9,.45l-.33,.66c-.47-.28-1.01-.41-1.56-.38-1.74,0-2.85,1.12-2.85,3.31v.64c.48-.9,1.44-1.44,2.46-1.37,1.34-.17,2.56,.77,2.73,2.11,0,.06,.02,.16,.02,.26Zm-.82,0c0-1.06-.79-1.74-2-1.74-1.02-.11-1.94,.63-2.06,1.65,0,.03,0,.07,0,.1,0,.9,.74,1.74,2.12,1.74,.96,.14,1.85-.53,1.99-1.49,0-.02,0-.03,0-.05,0-.06,0-.12,0-.18l-.06-.03Z" fill="#fff"></path>
  <path d="M427.06,228.95l-1.91-2.53-1.94,2.53h-.92l2.4-3.1-2.28-2.94h.92l1.82,2.36,1.81-2.36h.91l-2.28,2.9,2.41,3.1-.94,.04Z" fill="#fff"></path>
  <path d="M433.21,228.95l-2-2.53-1.93,2.53h-.92l2.4-3.1-2.24-2.94h.92l1.81,2.36,1.82-2.36h.89l-2.23,2.9,2.41,3.1-.93,.04Z" fill="#fff"></path>
  <path d="M439.35,228.95l-1.92-2.53-1.91,2.53h-.92l2.39-3.1-2.28-2.94h.92l1.82,2.36,1.82-2.36h.89l-2.28,2.9,2.43,3.1-.96,.04Z" fill="#fff"></path>
  <path d="M445.52,228.95l-1.92-2.53-2,2.53h-.92l2.4-3.1-2.28-2.94h.92l1.81,2.36,1.82-2.36h.9l-2.26,2.9,2.41,3.1-.88,.04Z" fill="#fff"></path>
  <path d="M466.69,228.95l-1.92-2.53-1.93,2.53h-.92l2.38-3.14-2.26-2.94h.92l1.81,2.36,1.82-2.36h1l-2.35,2.94,2.42,3.1-.97,.04Z" fill="#fff"></path>
  <path d="M472.82,228.95l-1.92-2.53-1.93,2.53h-.92l2.4-3.1-2.28-2.94h.92l1.81,2.36,1.82-2.36h.9l-2.28,2.9,2.41,3.1-.93,.04Z" fill="#fff"></path>
  <path d="M478.97,228.95l-1.92-2.53-1.93,2.53h-.92l2.42-3.14-2.28-2.94h.92l1.81,2.36,1.82-2.36h.89l-2.26,2.94,2.41,3.1-.96,.04Z" fill="#fff"></path>
  <path d="M485.11,228.95l-1.92-2.53-1.93,2.53h-.92l2.38-3.1-2.2-2.94h.92l1.83,2.36,1.81-2.36h.9l-2.35,2.9,2.42,3.1-.94,.04Z" fill="#fff"></path>
  <path d="M504.15,220.9v8.05h-.83v-7.29h-1.9v-.74l2.73-.02Z" fill="#fff"></path>
  <path d="M511.38,226.66c0,1.3-1,2.39-2.91,2.39-1.06,.04-2.1-.31-2.91-1l.42-.66c.67,.63,1.57,.96,2.49,.93,1.29,0,2.07-.62,2.07-1.62s-.68-1.59-2.18-1.59h-.57v-.61l2.23-2.8h-4.12v-.74h5.19v.6l-2.27,2.86c1.7,.1,2.56,.94,2.56,2.24Z" fill="#fff"></path>
  <path d="M519.4,226.84h-1.62v2.11h-.82v-2.11h-4.55v-.6l4.26-5.34h.92l-4.07,5.18h3.49v-1.85h.8v1.85h1.63l-.04,.76Z" fill="#fff"></path>
  <path d="M525.6,228.22v.73h-5.65v-.55l3.35-3.27c.9-.9,1.09-1.44,1.09-2,0-.93-.67-1.5-1.9-1.5-.83-.06-1.64,.27-2.19,.89l-.59-.5c.73-.79,1.78-1.21,2.85-1.16,1.63,0,2.67,.83,2.67,2.18-.03,.99-.51,1.92-1.3,2.52l-2.73,2.69,4.4-.03Z" fill="#fff"></path>
  <path d="M379.05,245.66c0-1.1,.9-2,2-2h.14c.6-.02,1.17,.23,1.57,.68l-.57,.53c-.24-.3-.61-.47-1-.45-.67-.01-1.23,.53-1.24,1.2,0,0,0,.01,0,.02,0,.68,.55,1.23,1.23,1.24h0c.39,.01,.75-.15,1-.45l.57,.51c-.39,.47-.98,.72-1.59,.69-1.08,.04-2-.78-2.07-1.86l-.04-.11Z" fill="#fff"></path>
  <path d="M385.77,246.76h-1.78l-.35,.82h-.91l1.71-3.89h.88l1.72,3.89h-.92l-.35-.82Zm-.28-.67l-.61-1.48-.61,1.48h1.22Z" fill="#fff"></path>
  <path d="M389.9,247.58l-.75-1.07h-.82v1.07h-.88v-3.92h1.66c1,0,1.67,.53,1.67,1.38,.01,.53-.3,1.01-.79,1.22l.86,1.23-.95,.09Zm-.84-3.11h-.73v1.29h.73c.54,0,.81-.24,.81-.67s-.27-.62-.81-.62Z" fill="#fff"></path>
  <path d="M391.18,247.2l.3-.67c.38,.26,.84,.4,1.3,.4,.53,0,.74-.17,.74-.4,0-.73-2.23-.24-2.23-1.66,0-.65,.53-1.2,1.62-1.2,.45,0,.9,.12,1.29,.34l-.27,.68c-.32-.19-.69-.29-1.06-.3-.53,0-.74,.19-.74,.44,0,.7,2.24,.22,2.24,1.62,0,.65-.54,1.19-1.63,1.19-.55,.01-1.09-.14-1.56-.44Z" fill="#fff"></path>
  <path d="M400.14,243.74v3.92h-.89v-1.6h-1.73v1.6h-.89v-3.89h.89v1.52h1.75v-1.52l.87-.03Z" fill="#fff"></path>
  <path d="M400.75,245.66c-.05-1.16,.84-2.14,2-2.19,1.16-.05,2.14,.84,2.19,2,.05,1.15-.83,2.13-1.99,2.19h-.11c-1.09,.06-2.03-.77-2.1-1.86v-.14Zm3.31,0c-.01-.67-.56-1.2-1.23-1.19-.67,.01-1.2,.56-1.19,1.23,.01,.66,.55,1.19,1.21,1.19,.65,0,1.18-.53,1.18-1.18v-.05h.03Z" fill="#fff"></path>
  <path d="M405.62,243.74h.9v3.11h1.92v.73h-2.82v-3.84Z" fill="#fff"></path>
  <path d="M408.94,243.74h1.75c1.07-.08,2.01,.73,2.08,1.81,.08,1.07-.73,2.01-1.81,2.08-.09,0-.19,0-.28,0h-1.75v-3.89Zm1.71,3.11c.66,0,1.19-.53,1.19-1.19s-.53-1.19-1.19-1.19h-.82v2.38h.82Z" fill="#fff"></path>
  <path d="M416.46,246.86v.72h-3v-3.92h2.89v.71h-2v.86h1.78v.7h-1.78v.88l2.11,.05Z" fill="#fff"></path>
  <path d="M419.58,247.58l-.75-1.07h-.81v1.07h-.89v-3.92h1.66c1,0,1.68,.53,1.68,1.38,0,.53-.3,1.01-.79,1.22l.85,1.23-.95,.09Zm-.84-3.11h-.72v1.29h.72c.55,0,.82-.24,.82-.67s-.23-.62-.78-.62h-.04Z" fill="#fff"></path>
  <g>
    <rect x="378.17" y="257.13" width="56.97" height="4.93" rx="2.06" ry="2.06" fill="#fff"></rect>
    <path d="M433.08,262.56h-52.85c-1.41,0-2.56-1.15-2.56-2.56v-.81c0-1.41,1.15-2.56,2.56-2.56h52.85c1.41,0,2.56,1.15,2.56,2.56v.81c0,1.41-1.15,2.56-2.56,2.56Zm-52.85-4.93c-.86,0-1.56,.7-1.56,1.56v.81c0,.86,.7,1.56,1.56,1.56h52.85c.86,0,1.56-.7,1.56-1.56v-.81c0-.86-.7-1.56-1.56-1.56h-52.85Z" fill="#002346"></path>
  </g>
  <g>
    <rect x="497.66" y="257.13" width="31.65" height="4.93" rx="2.06" ry="2.06" fill="#fff"></rect>
    <path d="M527.25,262.56h-27.53c-1.41,0-2.56-1.15-2.56-2.56v-.81c0-1.41,1.15-2.56,2.56-2.56h27.53c1.41,0,2.56,1.15,2.56,2.56v.81c0,1.41-1.15,2.56-2.56,2.56Zm-27.53-4.93c-.86,0-1.56,.7-1.56,1.56v.81c0,.86,.7,1.56,1.56,1.56h27.53c.86,0,1.56-.7,1.56-1.56v-.81c0-.86-.7-1.56-1.56-1.56h-27.53Z" fill="#002346"></path>
  </g>
  <g>
    <path d="M541.65,163.31h-174.41c-3.41,0-6.18,2.76-6.19,6.17h0v31.3c11,7.69,26.15,9.08,39.58,6.24,15.83-3.31,30.17-11.41,44.91-18.05,14.74-6.64,31-11.95,46.88-9.21,15.1,2.59,27.87,11.9,41.48,18.9,4.48,2.31,9.17,4.2,14,5.63v-34.8c0-3.42-2.78-6.19-6.2-6.18-.02,0-.03,0-.05,0Z" fill="#fbe493"></path>
    <path d="M387.84,208.87c-10.27,0-19.87-2.65-27.07-7.68l-.21-.15v-31.55c0-1.8,.7-3.47,1.96-4.73,1.26-1.26,2.94-1.95,4.72-1.95h174.48c3.68,0,6.68,2.99,6.69,6.68v35.47l-.64-.19c-4.85-1.44-9.59-3.34-14.09-5.67-3.51-1.81-7.02-3.79-10.41-5.72-9.73-5.52-19.79-11.22-30.92-13.13-16.8-2.9-33.73,3.38-46.59,9.17-3.4,1.53-6.83,3.17-10.15,4.75-11.12,5.3-22.62,10.78-34.86,13.34-4.33,.92-8.67,1.37-12.9,1.37Zm-26.28-8.36c9.93,6.83,24.48,9.08,38.98,6.01,12.12-2.53,23.57-7.99,34.64-13.26,3.33-1.58,6.77-3.22,10.17-4.76,12.99-5.85,30.09-12.2,47.17-9.25,11.3,1.94,21.44,7.69,31.25,13.25,3.38,1.92,6.88,3.9,10.38,5.7,4.24,2.19,8.7,4.01,13.27,5.4v-34.13c0-3.13-2.56-5.68-5.69-5.68h-174.48c-1.51,0-2.94,.59-4.01,1.66-1.08,1.07-1.67,2.5-1.67,4.01v31.04Z" fill="#002346"></path>
  </g>
  <g>
    <rect x="364.95" y="327.98" width="48.49" height="48.49" rx="11.38" ry="11.38" fill="#08294E"></rect>
    <path d="M402.06,376.97h-25.73c-6.55,0-11.88-5.33-11.88-11.88v-25.73c0-6.55,5.33-11.88,11.88-11.88h25.73c6.55,0,11.88,5.33,11.88,11.88v25.73c0,6.55-5.33,11.88-11.88,11.88Zm-25.73-48.49c-6,0-10.88,4.88-10.88,10.88v25.73c0,6,4.88,10.88,10.88,10.88h25.73c6,0,10.88-4.88,10.88-10.88v-25.73c0-6-4.88-10.88-10.88-10.88h-25.73Z" fill="#002346"></path>
  </g>
  <path d="M393.98,359.66h-10.6c-.29,0-.54-.2-.6-.48l-3.88-15.52h-3.69c-.36-.04-.61-.37-.56-.73,.04-.3,.27-.53,.56-.56h4.19c.29,0,.54,.2,.61,.48l3.89,15.55h10.11c.36,0,.65,.29,.65,.65s-.29,.65-.65,.65h0l-.03-.04Z" fill="#fff"></path>
  <circle cx="385.39" cy="362.64" r="1.98" fill="#08294E"></circle>
  <path d="M385.39,365.25c-1.44,0-2.6-1.15-2.61-2.59,0-1.44,1.15-2.6,2.59-2.61,1.44,0,2.6,1.15,2.61,2.59,0,0,0,.01,0,.02,0,1.43-1.16,2.59-2.59,2.59Zm0-4c-.72,0-1.3,.58-1.3,1.3s.58,1.3,1.3,1.3h0c.69,0,1.26-.55,1.3-1.24-.02-.71-.59-1.29-1.3-1.33v-.03Z" fill="#fff"></path>
  <circle cx="396.42" cy="362.64" r="1.98" fill="#08294E"></circle>
  <path d="M396.42,365.25c-1.44,0-2.6-1.15-2.61-2.59,0-1.44,1.15-2.6,2.59-2.61,1.44,0,2.6,1.15,2.61,2.59,0,0,0,.01,0,.02,0,1.43-1.16,2.59-2.59,2.59Zm0-4c-.71,.04-1.26,.65-1.23,1.36,.03,.72,.64,1.27,1.36,1.24,.72-.03,1.27-.64,1.24-1.36-.03-.67-.57-1.21-1.24-1.24h-.13Z" fill="#fff"></path>
  <path d="M398.12,356.73h-15.09c-.34,.01-.62-.25-.63-.59,0,0,0-.01,0-.02h0c0-.34,.29-.62,.63-.62h14.49l1.66-9.35h-19c-.36,.04-.68-.21-.73-.56-.04-.36,.21-.68,.56-.73,.05,0,.11,0,.16,0h19.79c.18,0,.36,.08,.48,.22,.12,.14,.17,.34,.13,.52l-1.88,10.59c-.04,.3-.28,.52-.58,.54Z" fill="#fff"></path>
  <g>
    <rect x="429.53" y="336.5" width="98.37" height="11.71" rx="4.89" ry="4.89" fill="#e6e7e8"></rect>
    <path d="M523.01,348.71h-88.59c-2.97,0-5.39-2.42-5.39-5.39v-1.93c0-2.97,2.42-5.39,5.39-5.39h88.59c2.97,0,5.39,2.42,5.39,5.39v1.93c0,2.97-2.42,5.39-5.39,5.39Zm-88.59-11.71c-2.42,0-4.39,1.97-4.39,4.39v1.93c0,2.42,1.97,4.39,4.39,4.39h88.59c2.42,0,4.39-1.97,4.39-4.39v-1.93c0-2.42-1.97-4.39-4.39-4.39h-88.59Z" fill="#002346"></path>
  </g>
  <g>
    <rect x="429.53" y="359.51" width="49.72" height="11.71" rx="4.89" ry="4.89" fill="#e6e7e8"></rect>
    <path d="M474.36,371.72h-39.94c-2.97,0-5.39-2.42-5.39-5.39v-1.93c0-2.97,2.42-5.39,5.39-5.39h39.94c2.97,0,5.39,2.42,5.39,5.39v1.93c0,2.97-2.42,5.39-5.39,5.39Zm-39.94-11.71c-2.42,0-4.39,1.97-4.39,4.39v1.93c0,2.42,1.97,4.39,4.39,4.39h39.94c2.42,0,4.39-1.97,4.39-4.39v-1.93c0-2.42-1.97-4.39-4.39-4.39h-39.94Z" fill="#002346"></path>
  </g>
  <path d="M568.77,309.72c0,.18-51.19,.34-114.32,.34s-114.34-.16-114.34-.34,51.19-.34,114.34-.34,114.32,.16,114.32,.34Z" fill="#e0e0e0"></path>
  <g>
    <rect x="381.1" y="395.91" width="149.12" height="50.28" rx="21.01" ry="21.01" fill="#fbe493"></rect>
    <path d="M509.21,446.69h-107.1c-11.86,0-21.51-9.65-21.51-21.51v-8.26c0-11.86,9.65-21.51,21.51-21.51h107.1c11.86,0,21.51,9.65,21.51,21.51v8.26c0,11.86-9.65,21.51-21.51,21.51Zm-107.1-50.28c-11.31,0-20.51,9.2-20.51,20.51v8.26c0,11.31,9.2,20.51,20.51,20.51h107.1c11.31,0,20.51-9.2,20.51-20.51v-8.26c0-11.31-9.2-20.51-20.51-20.51h-107.1Z" fill="#002346"></path>
  </g>
  <path d="M452.72,418.66c0,2.59-1.9,4.09-4.93,4.09h-1.94v2.91h-3.14v-11.1h5.08c3.03,0,4.93,1.58,4.93,4.1Zm-3.2,0c0-1-.66-1.64-1.95-1.64h-1.75v3.22h1.75c1.32,.01,1.95-.58,1.95-1.58Z" fill="#002346"></path>
  <path d="M461.13,423.52h-4.69l-.92,2.14h-3.21l4.9-11.11h3.1l4.95,11.11h-3.26l-.87-2.14Zm-.92-2.32l-1.43-3.54-1.42,3.56,2.85-.02Z" fill="#002346"></path>
  <path d="M471.43,421.66v4h-3.13v-4l-4.24-7.08h3.32l2.59,4.42,2.55-4.44h3l-4.09,7.1Z" fill="#002346"></path>
  <g>
    <circle cx="367.93" cy="113.94" r="9.68" fill="#08294E"></circle>
    <path d="M367.93,124.12c-5.61,0-10.18-4.57-10.18-10.18s4.57-10.18,10.18-10.18,10.18,4.57,10.18,10.18-4.57,10.18-10.18,10.18Zm0-19.36c-5.06,0-9.18,4.12-9.18,9.18s4.12,9.18,9.18,9.18,9.18-4.12,9.18-9.18-4.12-9.18-9.18-9.18Z" fill="#002346"></path>
  </g>
  <g>
    <rect x="418.18" y="108.96" width="72.51" height="8.49" rx="3.55" ry="3.55" fill="#e6e7e8"></rect>
    <path d="M487.14,117.95h-65.41c-2.23,0-4.05-1.82-4.05-4.05v-1.39c0-2.23,1.82-4.05,4.05-4.05h65.41c2.23,0,4.05,1.82,4.05,4.05v1.39c0,2.23-1.82,4.05-4.05,4.05Zm-65.41-8.49c-1.68,0-3.05,1.37-3.05,3.05v1.39c0,1.68,1.37,3.05,3.05,3.05h65.41c1.68,0,3.05-1.37,3.05-3.05v-1.39c0-1.68-1.37-3.05-3.05-3.05h-65.41Z" fill="#002346"></path>
  </g>
  <g>
    <rect x="388.98" y="460.69" width="148.02" height="9.89" fill="#002346"></rect>
    <path d="M537.5,471.08h-149.02v-10.89h149.02v10.89Zm-148.02-1h147.02v-8.89h-147.02v8.89Z" fill="#002346"></path>
  </g>
  <g>
    <path d="M395.99,465.66c1.3,.44,18.64,.44,18.64,34.67s-.87,76.71,17.33,78c18.2,1.29,114,0,114,0v-85.94c0-14.34-11.58-25.98-25.92-26.05l-124.05-.68Z" fill="#fff"></path>
    <path d="M469.57,579.4c-16.91,0-31.61-.14-37.65-.57-17.88-1.27-17.83-39.92-17.8-74.01v-4.48c0-20.42-6.1-32.2-17.66-34.07-.31-.05-.52-.09-.64-.13l-2.93-.99,127.14,.7c14.57,.07,26.42,11.98,26.42,26.55v86.43h-.49c-.64,.02-42.87,.58-76.4,.58Zm-69.44-113.22c9.83,3.6,14.99,15.3,14.99,34.15v4.49c-.04,32-.08,71.81,16.87,73.02,17.3,1.22,106,.1,113.46,0v-85.45c0-14.02-11.4-25.48-25.42-25.55l-119.9-.66Z" fill="#002346"></path>
  </g>
  <g>
    <path d="M432.4,578.31s15,0,18.15-22.1c3.83-26.34,0-49.41,20.37-50.28s75,0,75,0l.7,46.92c.22,14.94-11.96,27.11-26.9,26.87l-87.32-1.4Z" fill="#d1d3d4"></path>
    <path d="M520.16,580.22c-.15,0-.3,0-.45,0l-87.32-1.4v-1c.6,0,14.62-.29,17.66-21.67,.84-5.8,1.31-11.36,1.76-16.74,1.55-18.59,2.78-33.27,19.09-33.97,20.15-.86,74.48,0,75.03,0h.49s.71,47.41,.71,47.41c.11,7.36-2.7,14.28-7.91,19.49-5.1,5.1-11.85,7.89-19.05,7.89Zm-83.46-2.34l83.02,1.33c7.07,.11,13.76-2.58,18.77-7.59,5.02-5.01,7.72-11.67,7.62-18.76l-.69-46.43c-5.47-.08-55.38-.81-74.49,0-15.43,.66-16.56,14.25-18.13,33.05-.45,5.39-.92,10.97-1.76,16.8-2.1,14.74-9.52,19.83-14.34,21.6Z" fill="#002346"></path>
  </g>
  <g>
    <path d="M468.41,506.19s16.43-2,16.43,25.32,.43,45.36,18.62,47.37c18.19,2.01,130,0,130,0,0,0-17.77-8.37-19.07-33.08-1.3-24.71-6.48-39.77-24.28-40.24-17.8-.47-121.7,.63-121.7,.63Z" fill="#fff"></path>
    <path d="M545.23,580.27c-19.3,0-35.79-.22-41.83-.89-19.07-2.11-19.07-22.3-19.07-47.87,0-10.29-2.31-17.56-6.87-21.6-2.91-2.58-6.04-3.14-7.73-3.24-.8,0-1.26,.01-1.32,.01l-.07-1c.07,0,.63-.07,1.51-.02,12.66-.13,103.81-1.05,120.27-.61,19.91,.53,23.67,19.88,24.77,40.71,1.27,24.1,18.61,32.57,18.78,32.65l1.93,.91-2.14,.04c-.74,.01-50,.89-88.24,.89Zm-71.17-73.63c1.3,.52,2.7,1.32,4.07,2.53,4.78,4.24,7.21,11.75,7.21,22.35,0,28.65,.84,44.96,18.17,46.87,16.68,1.84,113.6,.28,128.12,.03-4.45-2.8-16.68-12.3-17.75-32.58-1.24-23.52-5.76-39.29-23.79-39.77-15.19-.4-94.11,.35-116.03,.57Z" fill="#002346"></path>
  </g>
  <g>
    <rect x="502.74" y="179.73" width="17.29" height="17.29" rx="4.08" ry="4.08" fill="#fff"></rect>
    <path d="M515.95,197.52h-9.13c-2.53,0-4.58-2.05-4.58-4.58v-9.13c0-2.53,2.05-4.58,4.58-4.58h9.13c2.53,0,4.58,2.05,4.58,4.58v9.13c0,2.53-2.05,4.58-4.58,4.58Zm-9.13-17.29c-1.97,0-3.58,1.61-3.58,3.58v9.13c0,1.97,1.61,3.58,3.58,3.58h9.13c1.97,0,3.58-1.61,3.58-3.58v-9.13c0-1.97-1.61-3.58-3.58-3.58h-9.13Z" fill="#002346"></path>
  </g>
  <polygon points="162.12 624.86 161.12 624.86 161.12 600.32 216.15 588.57 216.26 588.59 273.34 600.75 273.34 620.55 272.34 620.55 272.34 601.55 216.15 589.59 162.12 601.12 162.12 624.86" fill="#002346"></polygon>
  <g>
    <polygon points="234.8 514.4 225.42 543.17 204.3 543.17 196.74 514.55 234.8 514.4" fill="#d1d3d4"></polygon>
    <path d="M225.79,543.67h-21.87l-7.82-29.62,39.4-.16-9.71,29.77Zm-21.1-1h20.37l9.05-27.77-36.72,.15,7.3,27.62Z" fill="#002346"></path>
  </g>
  <g>
    <path d="M134.46,349.18s8-4.53,11.86,3.88l11.85,34.49-.57,57.73-18.61,6.93-7.55-41.17,3.02-61.86Z" fill="#fff"></path>
    <path d="M138.61,452.89l-.11-.59-7.56-41.23v-.06s3.04-62.13,3.04-62.13l.24-.14c.15-.09,3.78-2.1,7.45-.91,2.19,.71,3.91,2.4,5.11,5.02l11.9,34.62v.09s-.57,58.07-.57,58.07l-19.49,7.26Zm-6.66-41.88l7.43,40.53,17.73-6.6,.57-57.3-11.82-34.41c-1.06-2.31-2.58-3.82-4.5-4.44-2.76-.89-5.58,.31-6.41,.71l-3,61.51Z" fill="#002346"></path>
  </g>
  <g>
    <path d="M358.84,610.42l35.79,1.94s9.48,5.82-25.87,15.52c0,0-37.94,18.11-44.4-5l34.48-12.46Z" fill="#08294E"></path>
    <path d="M342.21,635.15c-3.51,0-6.9-.52-9.85-1.86-4.26-1.94-7.11-5.39-8.47-10.27l-.12-.45,35.01-12.65h.1s35.92,1.95,35.92,1.95l.11,.07c.07,.04,1.63,1.02,1.36,2.88-.59,4.17-9.8,8.73-27.36,13.55-.67,.33-14.38,6.78-26.69,6.78Zm-17.23-11.96c1.33,4.35,3.95,7.43,7.79,9.18,12.87,5.85,35.55-4.83,35.78-4.94,22.56-6.2,26.42-10.65,26.72-12.75,.14-1-.55-1.63-.8-1.82l-35.55-1.93-33.94,12.27Z" fill="#002346"></path>
  </g>
  <g>
    <path d="M322.58,552.84h.05c3.24-6.66,6.06-13.51,8.46-20.51,.63-1.95,1.48-3.83,2.53-5.59,11.21-18.73,36-41.58,36-41.58,16.17-17.24-.64-21.34-.64-21.34,0,0-46.24,31.58-45.16,71.67,.8,5.81,.37,11.72-1.24,17.35Z" fill="#fbe493"></path>
    <path d="M322.94,553.34h-.98l.13-.64c1.61-5.6,2.02-11.37,1.23-17.14-1.08-39.96,44.91-71.83,45.37-72.15l.18-.13,.22,.05c.25,.06,6.23,1.57,7.72,6.58,1.24,4.18-1.06,9.43-6.83,15.59-.27,.25-24.89,23.04-35.94,41.49-1.02,1.72-1.86,3.57-2.48,5.49-2.39,7-5.25,13.92-8.49,20.57l-.14,.28Zm46.13-88.98c-3.22,2.27-45.78,33.05-44.75,71.11,.6,4.38,.52,8.79-.25,13.13,2.45-5.37,4.64-10.88,6.54-16.44,.64-1.98,1.51-3.89,2.57-5.68,11.12-18.58,35.84-41.46,36.09-41.69,5.49-5.86,7.71-10.78,6.58-14.59-1.18-3.97-5.75-5.53-6.79-5.84Z" fill="#002346"></path>
  </g>
  <g>
    <path d="M319.32,561.13l16.46,36.14s6.47,15.74,23.06,13.15c0,0-16.59,31-34.48,12.5l-25.64-40.85,5.16-25.75,15.44,4.81Z" fill="#f2b3c1"></path>
    <path d="M336.31,629.31c-4.29,0-8.42-2.03-12.3-6.04l-.06-.08-25.75-41.02,5.31-26.49,16.18,5.04,16.55,36.34c.07,.16,5.59,13.14,19.05,13.14,1.11,0,2.26-.09,3.48-.28l.99-.15-.47,.88c-.37,.69-9.15,16.86-21.05,18.52-.65,.09-1.29,.14-1.93,.14Zm-11.55-6.7c4.22,4.34,8.7,6.22,13.34,5.57,9.86-1.37,17.79-13.72,19.81-17.13-16.04,1.85-22.52-13.43-22.58-13.59l-16.36-35.92-14.7-4.58-5.01,25.01,25.51,40.64Z" fill="#002346"></path>
  </g>
  <g>
    <path d="M271.66,389.16l10.99-57.33,15.3-3.45,5.59,1.08c.29,.06,.45,.37,.33,.63l-25.85,58.53-6.36,.53Z" fill="#fbe493"></path>
    <path d="M271.05,389.71l11.18-58.3,15.72-3.55,5.69,1.1c.29,.06,.53,.24,.67,.5,.14,.26,.15,.56,.03,.83l-25.97,58.81-7.31,.61Zm12.04-57.47l-10.8,56.36,5.41-.45,25.73-58.26-5.45-1-14.88,3.36Z" fill="#002346"></path>
  </g>
  <g>
    <path d="M294.18,380.65l9.9-50.99s-.03-.08-.07-.07l-18.02,4.92-10.78,54.54,18.97-8.41Z" fill="#fff"></path>
    <path d="M274.54,389.91l11.03-55.79,18.59-5.08,.26,.21c.14,.13,.21,.33,.17,.52l-9.95,51.24-20.09,8.91Zm11.89-54.99l-10.53,53.29,17.85-7.91,9.72-50.03-17.04,4.66Z" fill="#002346"></path>
  </g>
  <g>
    <path d="M269.76,410.13s-24.94,28.53-39.17,20.74l-13.86-9s-4.46-14.91-4.46-28.92c1.66-1.25,2.87-3,3.45-5l16.25-7.93,15.44,17.64,22.35,12.47Z" fill="#f2b3c1"></path>
    <path d="M236.15,432.73c-2.05,0-4-.43-5.8-1.42l-14.05-9.12-.05-.18c-.04-.15-4.48-15.14-4.48-29.06v-.25l.2-.15c1.57-1.18,2.73-2.86,3.27-4.74l.06-.21,16.79-8.2,15.63,17.86,22.81,12.73-.41,.46c-.9,1.03-19.65,22.27-33.99,22.27Zm-18.99-11.18l13.7,8.9c12.71,6.95,34.81-16.56,38.11-20.19l-21.94-12.27-15.19-17.35-15.71,7.67c-.6,1.92-1.79,3.64-3.37,4.89,.05,12.89,3.9,26.65,4.39,28.36Z" fill="#002346"></path>
  </g>
  <g>
    <path d="M237.06,377.85l-21.34,10.13c-.58,2-1.79,3.75-3.45,5,0,0-.43,27.37,12.07,43.75l-30.82,10.93s-29.53,12.93-37.07-7.55l-8.19-41.6s-21.74-46.74,6.89-58.85c0,0,11.86-3.88,22.2-1.08l21.17,4.35s28.19,.43,38.54,34.92Z" fill="#08294E"></path>
    <path d="M174.95,452.2c-3.27,0-6.58-.48-9.58-1.76-4.44-1.89-7.59-5.31-9.38-10.16l-8.2-41.62c-.64-1.42-12.66-28.34-5.78-46.2,2.38-6.17,6.74-10.63,12.96-13.26,.16-.05,12.16-3.91,22.53-1.1l21.14,4.34h0c.37,0,28.61,.94,38.92,35.27l.12,.41-21.53,10.22c-.6,1.92-1.79,3.64-3.37,4.89,0,2.73,.33,27.95,11.97,43.2l.42,.55-31.47,11.16c-.48,.21-9.44,4.07-18.74,4.07Zm-5.86-114.13c-7.36,0-13.7,2.03-13.78,2.06-5.92,2.51-10.1,6.78-12.37,12.68-6.88,17.87,5.65,45.21,5.78,45.48l.04,.11,8.19,41.6c1.67,4.51,4.64,7.74,8.81,9.51,11.15,4.75,27.41-2.25,27.57-2.32l30.21-10.72c-12.04-16.39-11.77-43.24-11.76-43.51v-.25s.2-.15,.2-.15c1.56-1.18,2.73-2.86,3.27-4.74l.06-.22,21.15-10.04c-10.22-33.31-37.67-34.15-37.94-34.15l-21.26-4.36c-2.69-.73-5.49-1-8.16-1Z" fill="#002346"></path>
  </g>
  <g>
    <path d="M278.34,405.92s20.8-13.85,19.51-27.64v-17.62s-.18-11.77-6.72-11.43c-1.46,.09-2.82,.76-3.79,1.86-2.22,2.46-6.26,8.55-1.9,17,.7,1.36,1.63,2.58,2.64,3.72,1.36,1.55,3.55,4.7,2.99,8.47-.18,1.11-.52,2.19-1,3.21,0,0,1.29,5.61-2.81,9.7,.02-.05-1.92,8.24-8.92,12.72Z" fill="#f2b3c1"></path>
    <path d="M278.61,406.34l-.55-.84s.55-.37,1.4-1c4.83-3.81,6.73-9.38,7.19-10.97l-.34-.1,.59-.59c3.85-3.84,2.69-9.18,2.68-9.23l-.04-.17,.07-.16c.46-.97,.78-2.01,.96-3.08,.53-3.57-1.57-6.58-2.88-8.06-1.22-1.38-2.08-2.6-2.71-3.83-4.56-8.84-.14-15.23,1.98-17.57,1.04-1.19,2.55-1.92,4.13-2.02,1.47-.07,2.74,.39,3.8,1.39,3.3,3.08,3.44,10.23,3.45,10.54v17.63c1.14,12.15-14.17,24.08-18.59,27.26-.37,.28-.75,.55-1.15,.8Zm9.07-12.85c-.24,1.06-1.19,3.95-3.2,6.96,5.91-5.21,13.65-13.74,12.87-22.12v-17.67c0-.06-.15-7.02-3.13-9.81-.87-.81-1.89-1.19-3.06-1.12-1.31,.08-2.57,.7-3.44,1.69-1.98,2.19-6.11,8.16-1.83,16.44,.59,1.15,1.41,2.3,2.57,3.62,1.42,1.61,3.7,4.9,3.11,8.88-.18,1.11-.51,2.18-.97,3.2,.19,1.01,.9,6.05-2.91,9.93Z" fill="#002346"></path>
  </g>
  <g>
    <path d="M192.23,509.55h61.86c4.53,6,3.88,77.81,3.88,77.81,45.11,4.55,59.85-17.82,64.61-34.52,1.6-5.52,2.35-11.25,2.21-17-1.08-40.09,44.19-72,44.19-72l-89.24-35.78c-10.77-5.26-23.31-5.5-34.27-.65l-21.13,9.25-30.82,11c-15.09,5.38-22.23,3.86-22.23,3.86-15.34,51.14,20.94,58.03,20.94,58.03Z" fill="#fbe493"></path>
    <path d="M269.33,588.46c-3.64,0-7.45-.2-11.41-.6l-.45-.05v-.46c.23-24.46-.26-71.64-3.64-77.31h-61.69c-.12-.03-12.52-2.51-19.81-14.51-6.56-10.79-7.07-25.65-1.51-44.16l.13-.44,.45,.09c.07,.02,7.22,1.41,21.96-3.84l30.82-11,21.1-9.24c11.12-4.92,23.76-4.68,34.69,.66l90.06,36.11-.75,.53c-.45,.32-45.04,32.22-43.98,71.58,.14,5.81-.61,11.58-2.23,17.15-3.1,10.88-8.94,19.46-17.36,25.5-9.26,6.64-21.46,9.98-36.37,9.98Zm-10.85-1.55c43.32,4.22,58.51-16.25,63.62-34.2,1.59-5.48,2.33-11.15,2.19-16.85-1-37.07,37.81-67.51,43.67-71.88l-88.41-35.45c-10.69-5.22-23.03-5.46-33.88-.66l-21.13,9.25-30.85,11.01c-13.11,4.68-20.23,4.19-22.04,3.95-5.33,18.02-4.82,32.46,1.53,42.92,6.83,11.27,18.31,13.88,19.11,14.04h62.06l.15,.2c4.44,5.88,4.04,70.98,3.99,77.66Z" fill="#002346"></path>
  </g>
  <g>
    <circle cx="273.06" cy="626.16" r="9.27" fill="#fff"></circle>
    <path d="M273.06,635.93c-5.39,0-9.77-4.38-9.77-9.77s4.38-9.77,9.77-9.77,9.77,4.38,9.77,9.77-4.38,9.77-9.77,9.77Zm0-18.54c-4.84,0-8.77,3.93-8.77,8.77s3.93,8.77,8.77,8.77,8.77-3.93,8.77-8.77-3.93-8.77-8.77-8.77Z" fill="#002346"></path>
  </g>
  <g>
    <circle cx="161.84" cy="626.16" r="9.27" fill="#fff"></circle>
    <path d="M161.84,635.93c-5.39,0-9.77-4.38-9.77-9.77s4.38-9.77,9.77-9.77,9.77,4.38,9.77,9.77-4.38,9.77-9.77,9.77Zm0-18.54c-4.84,0-8.77,3.93-8.77,8.77s3.93,8.77,8.77,8.77,8.77-3.93,8.77-8.77-3.93-8.77-8.77-8.77Z" fill="#002346"></path>
  </g>
  <g>
    <path d="M198.05,331.51v15.15c0,.77-.23,1.52-.66,2.15-1.14,1.62-4.07,3.76-11.2,.79,0,0-9.7-3.88-8.84-11v-24.94l20.7,17.85Z" fill="#f2b3c1"></path>
    <path d="M192.41,351.58c-1.66,0-3.76-.41-6.41-1.52-.4-.16-10.04-4.1-9.14-11.52v-25.97s21.7,18.71,21.7,18.71v15.38c0,.87-.25,1.71-.75,2.43-.77,1.1-2.35,2.49-5.39,2.49Zm-14.56-36.83v23.85c-.81,6.71,8.43,10.5,8.53,10.54,6.84,2.85,9.58,.84,10.61-.61,.38-.55,.57-1.19,.57-1.86v-14.92l-19.7-16.99Z" fill="#002346"></path>
  </g>
  <g>
    <rect x="179.84" y="276.65" width="39.44" height="56.58" rx="19.72" ry="19.72" fill="#f2b3c1"></rect>
    <path d="M199.56,333.73c-11.15,0-20.22-9.07-20.22-20.22v-17.14c0-11.15,9.07-20.22,20.22-20.22s20.22,9.07,20.22,20.22v17.14c0,11.15-9.07,20.22-20.22,20.22Zm0-56.58c-10.6,0-19.22,8.62-19.22,19.22v17.14c0,10.6,8.62,19.22,19.22,19.22s19.22-8.62,19.22-19.22v-17.14c0-10.6-8.62-19.22-19.22-19.22Z" fill="#002346"></path>
  </g>
  <g>
    <path d="M199.07,269.4c25.37-2.55,20.21,26.97,20.21,26.97-5.07-14.22-14.34-17.24-14.34-17.2,.22,7.54-1.29,8.4-1.29,8.4-6.9,6.04-14.44-3.23-14.44-3.23,3.2,12.29-2.8,14.23-2.8,14.23,5.39,4.31,3.23,8.4,3.23,8.4-1.94-4.31-4.74-4.41-4.74-4.41l-2.37,2.26-2.87-2.36-2.09,11.2v17.83c-2.59-11.4-10.78-30.4-10.78-30.4,0,0-9.78-18.13,0-27.91,0,0,7.69-9.4,18.89-5.35,4.29,1.55,8.86,2.04,13.4,1.58Z" fill="#002346"></path>
    <path d="M178.07,335.95l-.99-4.35c-2.55-11.23-10.67-30.12-10.75-30.31-.39-.71-9.82-18.53,.11-28.47,.05-.06,8.01-9.58,19.41-5.47,4.13,1.49,8.57,2.02,13.18,1.55l.05,.5-.05-.5c6.94-.7,12.3,.92,15.92,4.8,7.33,7.88,4.94,22.14,4.83,22.75l-.33,1.87-.64-1.79c-4.18-11.73-11.23-15.68-13.35-16.63,.09,6.41-1.12,7.79-1.5,8.06-1.83,1.59-3.86,2.3-6.06,2.12-3.32-.28-6.19-2.54-7.78-4.05,1.78,8.67-1.3,11.71-2.81,12.65,4.9,4.34,2.79,8.48,2.77,8.53l-.48,.91-.42-.93c-1.5-3.34-3.49-3.97-4.11-4.09l-2.52,2.4-2.56-2.1-1.93,10.37v22.2Zm2.06-68.63c-7.79,0-12.88,6.1-12.94,6.17-9.43,9.44-.04,27.18,.05,27.36,.09,.21,6.62,15.4,9.84,26.71v-13.9l2.25-12.12,3.18,2.62,2.2-2.1h.21c.12,.01,2.61,.14,4.6,3.58,.21-1.4-.03-3.96-3.42-6.68l-.73-.58,.88-.29c.05-.02,5.5-2.01,2.47-13.63l-.58-2.22,1.45,1.78s3.87,4.69,8.38,5.07c1.91,.16,3.72-.48,5.34-1.9l.08-.06s0,0,0,0c0,0,1.24-1.14,1.04-7.95v-.43s.42-.07,.42-.07h0c.12,0,8.8,2.49,14.17,15.63,.38-4.2,.61-14.08-4.82-19.92-3.39-3.64-8.46-5.15-15.09-4.49h0c-4.75,.48-9.34-.06-13.62-1.61-1.9-.69-3.71-.97-5.38-.97Z" fill="#002346"></path>
  </g>
  <g>
    <path d="M207.32,404.79l-19.22-18.36-34.26,10.32,22.44,24.64s18.53,19.83,43.54,10.13l47.85-21.12s15.52-2.16,19.61-17.25c0,0,3.88-3.23,2.81-9.7,0,0,2.71-6.34-.32-6.23-.51,.03-1,.22-1.4,.54-1.92,1.51-9.75,7.83-15.42,5.37l1.58-9.39c.07-.66-.4-1.25-1.06-1.33-.25-.03-.5,.02-.72,.15-2.7,1.51-8.24,5.06-10.47,12.19,0,0-2.37,5.6-11.21,6.89l-43.75,13.15Z" fill="#f2b3c1"></path>
    <path d="M206.02,434.66c-17.77,0-29.96-12.77-30.11-12.93l-22.98-25.23,35.3-10.63,19.22,18.36,43.47-13.07c8.5-1.25,10.87-6.55,10.89-6.61,1.62-5.17,5.22-9.37,10.69-12.43,.31-.17,.67-.25,1.02-.21,.45,.05,.85,.27,1.14,.63,.28,.35,.41,.8,.36,1.25l-1.52,9.02c3.47,1.25,8.33-.54,14.42-5.35l.13-.1c.48-.39,1.06-.61,1.68-.65,.85-.03,1.33,.37,1.57,.71,1.06,1.55-.35,5.23-.71,6.08,.93,6-2.2,9.28-2.88,9.91-4.04,14.57-18.74,17.27-19.91,17.46l-47.79,21.09c-4.94,1.92-9.64,2.69-14,2.69Zm-51.28-37.66l21.91,24.05c.18,.19,18.6,19.46,42.99,10l47.96-21.15c.15-.02,15.24-2.3,19.2-16.89l.04-.15,.12-.1c.15-.13,3.64-3.15,2.64-9.24l-.02-.14,.06-.13c.66-1.55,1.48-4.35,.86-5.26-.09-.13-.27-.28-.7-.28-.4,.02-.79,.17-1.1,.43l-.14,.11c-6.62,5.21-11.93,7.01-15.8,5.33l-.36-.16,1.64-9.78c.02-.16-.04-.34-.15-.49-.12-.15-.28-.24-.47-.26-.15-.02-.29,.01-.42,.08-5.24,2.93-8.68,6.94-10.24,11.9-.12,.28-2.6,5.92-11.62,7.24l-43.96,13.22-19.22-18.36-33.22,10.01Z" fill="#002346"></path>
  </g>
  <g>
    <rect x="191.25" y="508.46" width="68.76" height="6.04" fill="#fff"></rect>
    <path d="M260.51,515h-69.76v-7.04h69.76v7.04Zm-68.76-1h67.76v-5.04h-67.76v5.04Z" fill="#002346"></path>
  </g>
  <g>
    <path d="M216.8,514.5h-64.23s-24.58-1.29-26.52-31.46v-129.12s1.94-8,8.41-4.74c0,0,5.61,.86,3,11.64,0,0-6.8,32.31,3.46,57.65,4.42,10.87,12.88,19.59,23.6,24.35,13,5.78,43.69,24.2,52.28,71.68Z" fill="#fff"></path>
    <path d="M217.4,515h-64.83c-.28-.01-25.07-1.66-27.02-31.93v-129.21s.01-.06,.01-.06c.04-.17,1.03-4.11,3.95-5.46,1.5-.7,3.22-.58,5.11,.36,.36,.08,1.72,.47,2.77,2.03,1.47,2.2,1.66,5.63,.55,10.2-.06,.31-6.65,32.44,3.44,57.34,4.39,10.8,12.68,19.35,23.34,24.08,12.93,5.75,43.92,24.27,52.57,72.05l.11,.59Zm-90.85-161.02v129.06c1.89,29.33,25.06,30.91,26.05,30.96h63.6c-8.71-46.87-39.16-65.06-51.88-70.72-10.9-4.83-19.37-13.58-23.86-24.62-10.2-25.19-3.55-57.62-3.49-57.94,1.29-5.33,.5-8.05-.39-9.4-.94-1.42-2.15-1.64-2.2-1.65l-.15-.05c-1.63-.82-3.07-.94-4.3-.38-2.32,1.07-3.26,4.28-3.38,4.73Z" fill="#002346"></path>
  </g>
  <g>
    <path d="M231.35,187.79h-28.73c-4.88,0-8.84,3.96-8.84,8.84h0v25c0,4.88,3.95,8.84,8.83,8.85h8.37l-6.12,12.14c-.15,.29,.23,.56,.46,.32l11.66-12.46h14.39c4.88,0,8.83-3.94,8.85-8.82h0v-25c0-4.89-3.96-8.85-8.85-8.85h0l-.02-.02Z" fill="#08294E"></path>
    <path d="M205.12,243.53c-.16,0-.31-.05-.45-.14-.32-.23-.43-.64-.25-.99l5.75-11.41h-7.56c-2.5,0-4.84-.98-6.6-2.74-1.76-1.77-2.73-4.11-2.73-6.61v-25c0-5.15,4.19-9.34,9.34-9.34l28.96,.02c5.06,.11,9.14,4.26,9.14,9.35v25c-.02,5.14-4.21,9.32-9.35,9.32h-14.17l-11.51,12.3c-.15,.16-.36,.25-.57,.25Zm-2.5-55.24c-4.6,0-8.34,3.74-8.34,8.34v25c0,2.23,.86,4.32,2.44,5.9,1.57,1.58,3.67,2.45,5.89,2.45h9.18l-5.8,11.51,10.77-11.51h14.61c4.59,0,8.33-3.73,8.35-8.32v-25c0-4.6-3.75-8.35-8.35-8.35l-28.75-.02Z" fill="#002346"></path>
  </g>
  <g>
    <circle cx="216.98" cy="209.03" r="14.26" fill="#08294E"></circle>
    <path d="M216.98,223.78c-3.78,0-7.56-1.44-10.44-4.32-2.79-2.79-4.32-6.49-4.32-10.44s1.54-7.65,4.32-10.44c5.76-5.76,15.12-5.75,20.87,0,5.75,5.75,5.75,15.12,0,20.87-2.88,2.88-6.66,4.32-10.44,4.32Zm0-28.51c-3.52,0-7.05,1.34-9.73,4.02-2.6,2.6-4.03,6.05-4.03,9.73s1.43,7.13,4.03,9.73c5.37,5.36,14.09,5.37,19.46,0,5.36-5.37,5.36-14.09,0-19.46-2.68-2.68-6.21-4.02-9.73-4.02Z" fill="#002346"></path>
  </g>
  <path d="M215.52,215.4c-.39,0-.75-.16-1-.46l-5.59-6.59c-.47-.55-.4-1.38,.15-1.85,.55-.47,1.38-.4,1.85,.15l4.6,5.42,7.59-9c.47-.55,1.3-.62,1.85-.15,.55,.47,.62,1.3,.15,1.85l-8.6,10.12c-.24,.31-.61,.5-1,.51Z" fill="#002346"></path>
  <g>
    <ellipse cx="179.53" cy="310.65" rx="6" ry="8" fill="#f2b3c1"></ellipse>
    <path d="M179.53,319.15c-3.58,0-6.5-3.81-6.5-8.5s2.92-8.5,6.5-8.5,6.5,3.81,6.5,8.5-2.92,8.5-6.5,8.5Zm0-16c-3.03,0-5.5,3.36-5.5,7.5s2.47,7.5,5.5,7.5,5.5-3.36,5.5-7.5-2.47-7.5-5.5-7.5Z" fill="#002346"></path>
  </g>
  <path d="M151.35,398.12c-.21,0-.41-.14-.48-.35-.08-.26,.07-.54,.33-.63l42.98-13.25-25.02-32.07c-.17-.22-.13-.53,.09-.7,.22-.17,.53-.13,.7,.09l25.46,32.64c.1,.13,.13,.3,.08,.46-.05,.16-.17,.28-.33,.33l-43.67,13.47s-.1,.02-.15,.02Z" fill="#002346"></path>
  <path d="M199.56,410.45c-.16,0-.32-.08-.42-.22-.15-.23-.09-.54,.14-.69l7.76-5.16c.23-.15,.54-.09,.69,.14,.15,.23,.09,.54-.14,.69l-7.76,5.16c-.09,.06-.18,.08-.28,.08Z" fill="#002346"></path>
  <path d="M215.72,388.48s-.09,0-.13-.02c-.27-.07-.42-.35-.35-.61,.03-.12,3.16-12-3.41-24.81-.13-.25-.03-.55,.22-.67,.25-.13,.55-.03,.67,.22,6.75,13.17,3.52,25.41,3.49,25.54-.06,.22-.26,.37-.48,.37Z" fill="#002346"></path>
  <path d="M291.21,369.34c-.18,0-.36-.1-.45-.28l-6.67-13.33c-.12-.25-.02-.55,.22-.67s.55-.02,.67,.22l6.67,13.33c.12,.25,.02,.55-.22,.67-.07,.04-.15,.05-.22,.05Z" fill="#002346"></path>
  <path d="M295.53,365.15c-.19,0-.37-.11-.46-.29l-6.71-14.74c-.11-.25,0-.55,.25-.66,.25-.11,.55,0,.66,.25l6.71,14.74c.11,.25,0,.55-.25,.66-.07,.03-.14,.04-.21,.04Z" fill="#002346"></path>
  <path d="M278.02,389.13c-.25,0-.46-.19-.5-.44-.03-.27,.16-.52,.44-.56,8.17-.98,11.72-4.97,11.75-5.01,.18-.21,.5-.23,.71-.05,.21,.18,.23,.49,.05,.7-.15,.18-3.8,4.32-12.39,5.35-.02,0-.04,0-.06,0Z" fill="#002346"></path>
  <path d="M280.03,395.65c-.28,0-.5-.22-.5-.5s.22-.5,.5-.5c3.8,0,6.96-1.91,6.99-1.93,.24-.14,.54-.07,.69,.17,.14,.24,.07,.54-.16,.69-.14,.08-3.42,2.07-7.52,2.07Z" fill="#002346"></path>
  <rect x="215.27" y="543.17" width="1" height="45.91" fill="#002346"></rect>
  <path d="M527.28,485.98h-93.76c-.28,0-.5-.22-.5-.5s.22-.5,.5-.5h93.76c.28,0,.5,.22,.5,.5s-.22,.5-.5,.5Z" fill="#002346"></path>
  <path d="M528.28,498.98h-93.76c-.28,0-.5-.22-.5-.5s.22-.5,.5-.5h93.76c.28,0,.5,.22,.5,.5s-.22,.5-.5,.5Z" fill="#002346"></path>
  <path d="M595.28,524.98h-93.76c-.28,0-.5-.22-.5-.5s.22-.5,.5-.5h93.76c.28,0,.5,.22,.5,.5s-.22,.5-.5,.5Z" fill="#002346"></path>
  <path d="M596.28,537.98h-93.76c-.28,0-.5-.22-.5-.5s.22-.5,.5-.5h93.76c.28,0,.5,.22,.5,.5s-.22,.5-.5,.5Z" fill="#002346"></path>
  <g>
    <path d="M410.79,512.13s16.63-14.57,26.28-18.24c1.96-.75,4.16,.23,4.91,2.19,.35,.91,.33,1.91-.04,2.81-6,14.33-28.18,61.2-53.13,43.4l21.98-30.16Z" fill="#08294E"></path>
    <path d="M400.24,546.77c-4,0-7.92-1.36-11.72-4.07l-.41-.29,22.35-30.65c.68-.6,16.81-14.67,26.43-18.33,1.07-.41,2.24-.38,3.29,.09,1.05,.47,1.85,1.32,2.26,2.39,.39,1.03,.38,2.16-.04,3.18-4.06,9.7-18.73,41.74-37.05,46.95-1.71,.49-3.42,.73-5.11,.73Zm-10.72-4.59c5.02,3.44,10.25,4.41,15.56,2.9,17.89-5.09,32.39-36.78,36.4-46.37,.32-.78,.33-1.65,.03-2.44-.32-.82-.93-1.47-1.74-1.83-.8-.36-1.7-.38-2.52-.07-9.22,3.51-25.16,17.3-26.09,18.11l-21.65,29.7Z" fill="#002346"></path>
  </g>
  <g>
    <path d="M344.65,487.18l42.22,28s9.7,6,23.92-3c0,0,3.67,32.34-22,30.18l-59.7-29.46s1.79-8.42,15.56-25.72Z" fill="#f2b3c1"></path>
    <path d="M391.18,542.96c-.79,0-1.6-.03-2.43-.1l-.18-.05-60.05-29.63,.08-.38c.07-.35,1.97-8.73,15.66-25.93l.29-.36,42.6,28.25c.08,.05,9.62,5.71,23.38-3.01l.67-.43,.09,.79c.08,.69,1.81,16.94-6.63,25.62-3.37,3.47-7.89,5.21-13.48,5.21Zm-2.25-1.09c6.35,.51,11.41-1.1,15.01-4.82,7.08-7.28,6.65-20.63,6.42-24.02-13.95,8.44-23.66,2.63-23.75,2.57l-41.85-27.75c-11.72,14.8-14.56,23-15.08,24.78l59.25,29.24Z" fill="#002346"></path>
  </g>
  <path d="M391.81,190.37c0,1.52-1.21,2.4-3.52,2.4h-4.52v-8.77h4.28c2.19,0,3.32,.92,3.32,2.28,.01,.81-.44,1.56-1.17,1.93,.98,.25,1.65,1.15,1.61,2.16Zm-6-4.85v2.08h2c1,0,1.53-.35,1.53-1s-.54-1-1.53-1l-2-.08Zm4,4.65c0-.74-.57-1.09-1.62-1.09h-2.37v2.16h2.37c1.01,0,1.58-.32,1.58-1.07h.04Z" fill="#002346"></path>
  <path d="M399.12,190.89h-4.07l-.78,1.88h-2.09l3.89-8.77h2l3.89,8.77h-2.13l-.71-1.88Zm-.64-1.54l-1.4-3.36-1.39,3.36h2.79Z" fill="#002346"></path>
  <path d="M410.98,184v8.77h-1.67l-4.37-5.33v5.33h-2v-8.77h1.68l4.36,5.32v-5.32h2Z" fill="#002346"></path>
  <path d="M416.24,189.32l-1.18,1.3v2.22h-2v-8.78h2v4.1l3.88-4.1h2.26l-3.63,3.89,3.89,4.86h-2.37l-2.85-3.49Z" fill="#002346"></path>
  <g>
    <g>
      <g>
        <rect x="668.44" y="539.87" width="62.6" height="9.51" rx="1.92" ry="1.92" fill="#08294E"></rect>
        <path d="M729.12,549.88h-58.76c-1.33,0-2.42-1.09-2.42-2.42v-5.67c0-1.33,1.09-2.42,2.42-2.42h58.76c1.33,0,2.42,1.09,2.42,2.42v5.67c0,1.33-1.09,2.42-2.42,2.42Zm-58.76-9.51c-.78,0-1.42,.64-1.42,1.42v5.67c0,.78,.64,1.42,1.42,1.42h58.76c.78,0,1.42-.64,1.42-1.42v-5.67c0-.78-.64-1.42-1.42-1.42h-58.76Z" fill="#002346"></path>
      </g>
      <path d="M673.59,547.87c-.28,0-.5-.22-.5-.5v-5.49c0-.28,.22-.5,.5-.5s.5,.22,.5,.5v5.49c0,.28-.22,.5-.5,.5Z" fill="#002346"></path>
      <path d="M678.74,547.87c-.28,0-.5-.22-.5-.5v-5.49c0-.28,.22-.5,.5-.5s.5,.22,.5,.5v5.49c0,.28-.22,.5-.5,.5Z" fill="#002346"></path>
      <path d="M683.89,547.87c-.28,0-.5-.22-.5-.5v-5.49c0-.28,.22-.5,.5-.5s.5,.22,.5,.5v5.49c0,.28-.22,.5-.5,.5Z" fill="#002346"></path>
      <path d="M689.03,547.87c-.28,0-.5-.22-.5-.5v-5.49c0-.28,.22-.5,.5-.5s.5,.22,.5,.5v5.49c0,.28-.22,.5-.5,.5Z" fill="#002346"></path>
      <path d="M694.18,547.87c-.28,0-.5-.22-.5-.5v-5.49c0-.28,.22-.5,.5-.5s.5,.22,.5,.5v5.49c0,.28-.22,.5-.5,.5Z" fill="#002346"></path>
      <path d="M699.33,547.87c-.28,0-.5-.22-.5-.5v-5.49c0-.28,.22-.5,.5-.5s.5,.22,.5,.5v5.49c0,.28-.22,.5-.5,.5Z" fill="#002346"></path>
      <path d="M704.48,547.87c-.28,0-.5-.22-.5-.5v-5.49c0-.28,.22-.5,.5-.5s.5,.22,.5,.5v5.49c0,.28-.22,.5-.5,.5Z" fill="#002346"></path>
      <path d="M709.62,547.87c-.28,0-.5-.22-.5-.5v-5.49c0-.28,.22-.5,.5-.5s.5,.22,.5,.5v5.49c0,.28-.22,.5-.5,.5Z" fill="#002346"></path>
      <path d="M714.77,547.87c-.28,0-.5-.22-.5-.5v-5.49c0-.28,.22-.5,.5-.5s.5,.22,.5,.5v5.49c0,.28-.22,.5-.5,.5Z" fill="#002346"></path>
      <path d="M719.92,547.87c-.28,0-.5-.22-.5-.5v-5.49c0-.28,.22-.5,.5-.5s.5,.22,.5,.5v5.49c0,.28-.22,.5-.5,.5Z" fill="#002346"></path>
      <path d="M725.07,547.87c-.28,0-.5-.22-.5-.5v-5.49c0-.28,.22-.5,.5-.5s.5,.22,.5,.5v5.49c0,.28-.22,.5-.5,.5Z" fill="#002346"></path>
    </g>
    <g>
      <g>
        <rect x="664.44" y="549.87" width="62.6" height="9.51" rx="1.92" ry="1.92" fill="#08294E"></rect>
        <path d="M725.12,559.88h-58.76c-1.33,0-2.42-1.09-2.42-2.42v-5.67c0-1.33,1.09-2.42,2.42-2.42h58.76c1.33,0,2.42,1.09,2.42,2.42v5.67c0,1.33-1.09,2.42-2.42,2.42Zm-58.76-9.51c-.78,0-1.42,.64-1.42,1.42v5.67c0,.78,.64,1.42,1.42,1.42h58.76c.78,0,1.42-.64,1.42-1.42v-5.67c0-.78-.64-1.42-1.42-1.42h-58.76Z" fill="#002346"></path>
      </g>
      <path d="M669.59,557.87c-.28,0-.5-.22-.5-.5v-5.49c0-.28,.22-.5,.5-.5s.5,.22,.5,.5v5.49c0,.28-.22,.5-.5,.5Z" fill="#002346"></path>
      <path d="M674.74,557.87c-.28,0-.5-.22-.5-.5v-5.49c0-.28,.22-.5,.5-.5s.5,.22,.5,.5v5.49c0,.28-.22,.5-.5,.5Z" fill="#002346"></path>
      <path d="M679.89,557.87c-.28,0-.5-.22-.5-.5v-5.49c0-.28,.22-.5,.5-.5s.5,.22,.5,.5v5.49c0,.28-.22,.5-.5,.5Z" fill="#002346"></path>
      <path d="M685.03,557.87c-.28,0-.5-.22-.5-.5v-5.49c0-.28,.22-.5,.5-.5s.5,.22,.5,.5v5.49c0,.28-.22,.5-.5,.5Z" fill="#002346"></path>
      <path d="M690.18,557.87c-.28,0-.5-.22-.5-.5v-5.49c0-.28,.22-.5,.5-.5s.5,.22,.5,.5v5.49c0,.28-.22,.5-.5,.5Z" fill="#002346"></path>
      <path d="M695.33,557.87c-.28,0-.5-.22-.5-.5v-5.49c0-.28,.22-.5,.5-.5s.5,.22,.5,.5v5.49c0,.28-.22,.5-.5,.5Z" fill="#002346"></path>
      <path d="M700.48,557.87c-.28,0-.5-.22-.5-.5v-5.49c0-.28,.22-.5,.5-.5s.5,.22,.5,.5v5.49c0,.28-.22,.5-.5,.5Z" fill="#002346"></path>
      <path d="M705.62,557.87c-.28,0-.5-.22-.5-.5v-5.49c0-.28,.22-.5,.5-.5s.5,.22,.5,.5v5.49c0,.28-.22,.5-.5,.5Z" fill="#002346"></path>
      <path d="M710.77,557.87c-.28,0-.5-.22-.5-.5v-5.49c0-.28,.22-.5,.5-.5s.5,.22,.5,.5v5.49c0,.28-.22,.5-.5,.5Z" fill="#002346"></path>
      <path d="M715.92,557.87c-.28,0-.5-.22-.5-.5v-5.49c0-.28,.22-.5,.5-.5s.5,.22,.5,.5v5.49c0,.28-.22,.5-.5,.5Z" fill="#002346"></path>
      <path d="M721.07,557.87c-.28,0-.5-.22-.5-.5v-5.49c0-.28,.22-.5,.5-.5s.5,.22,.5,.5v5.49c0,.28-.22,.5-.5,.5Z" fill="#002346"></path>
    </g>
    <g>
      <g>
        <rect x="664.44" y="569.87" width="62.6" height="9.51" rx="1.92" ry="1.92" fill="#08294E"></rect>
        <path d="M725.12,579.88h-58.76c-1.33,0-2.42-1.09-2.42-2.42v-5.67c0-1.33,1.09-2.42,2.42-2.42h58.76c1.33,0,2.42,1.09,2.42,2.42v5.67c0,1.33-1.09,2.42-2.42,2.42Zm-58.76-9.51c-.78,0-1.42,.64-1.42,1.42v5.67c0,.78,.64,1.42,1.42,1.42h58.76c.78,0,1.42-.64,1.42-1.42v-5.67c0-.78-.64-1.42-1.42-1.42h-58.76Z" fill="#002346"></path>
      </g>
      <path d="M669.59,577.87c-.28,0-.5-.22-.5-.5v-5.49c0-.28,.22-.5,.5-.5s.5,.22,.5,.5v5.49c0,.28-.22,.5-.5,.5Z" fill="#002346"></path>
      <path d="M674.74,577.87c-.28,0-.5-.22-.5-.5v-5.49c0-.28,.22-.5,.5-.5s.5,.22,.5,.5v5.49c0,.28-.22,.5-.5,.5Z" fill="#002346"></path>
      <path d="M679.89,577.87c-.28,0-.5-.22-.5-.5v-5.49c0-.28,.22-.5,.5-.5s.5,.22,.5,.5v5.49c0,.28-.22,.5-.5,.5Z" fill="#002346"></path>
      <path d="M685.03,577.87c-.28,0-.5-.22-.5-.5v-5.49c0-.28,.22-.5,.5-.5s.5,.22,.5,.5v5.49c0,.28-.22,.5-.5,.5Z" fill="#002346"></path>
      <path d="M690.18,577.87c-.28,0-.5-.22-.5-.5v-5.49c0-.28,.22-.5,.5-.5s.5,.22,.5,.5v5.49c0,.28-.22,.5-.5,.5Z" fill="#002346"></path>
      <path d="M695.33,577.87c-.28,0-.5-.22-.5-.5v-5.49c0-.28,.22-.5,.5-.5s.5,.22,.5,.5v5.49c0,.28-.22,.5-.5,.5Z" fill="#002346"></path>
      <path d="M700.48,577.87c-.28,0-.5-.22-.5-.5v-5.49c0-.28,.22-.5,.5-.5s.5,.22,.5,.5v5.49c0,.28-.22,.5-.5,.5Z" fill="#002346"></path>
      <path d="M705.62,577.87c-.28,0-.5-.22-.5-.5v-5.49c0-.28,.22-.5,.5-.5s.5,.22,.5,.5v5.49c0,.28-.22,.5-.5,.5Z" fill="#002346"></path>
      <path d="M710.77,577.87c-.28,0-.5-.22-.5-.5v-5.49c0-.28,.22-.5,.5-.5s.5,.22,.5,.5v5.49c0,.28-.22,.5-.5,.5Z" fill="#002346"></path>
      <path d="M715.92,577.87c-.28,0-.5-.22-.5-.5v-5.49c0-.28,.22-.5,.5-.5s.5,.22,.5,.5v5.49c0,.28-.22,.5-.5,.5Z" fill="#002346"></path>
      <path d="M721.07,577.87c-.28,0-.5-.22-.5-.5v-5.49c0-.28,.22-.5,.5-.5s.5,.22,.5,.5v5.49c0,.28-.22,.5-.5,.5Z" fill="#002346"></path>
    </g>
    <g>
      <g>
        <rect x="672.44" y="559.87" width="62.6" height="9.51" rx="1.92" ry="1.92" fill="#08294E"></rect>
        <path d="M733.12,569.88h-58.76c-1.33,0-2.42-1.09-2.42-2.42v-5.67c0-1.33,1.09-2.42,2.42-2.42h58.76c1.33,0,2.42,1.09,2.42,2.42v5.67c0,1.33-1.09,2.42-2.42,2.42Zm-58.76-9.51c-.78,0-1.42,.64-1.42,1.42v5.67c0,.78,.64,1.42,1.42,1.42h58.76c.78,0,1.42-.64,1.42-1.42v-5.67c0-.78-.64-1.42-1.42-1.42h-58.76Z" fill="#002346"></path>
      </g>
      <path d="M677.59,567.87c-.28,0-.5-.22-.5-.5v-5.49c0-.28,.22-.5,.5-.5s.5,.22,.5,.5v5.49c0,.28-.22,.5-.5,.5Z" fill="#002346"></path>
      <path d="M682.74,567.87c-.28,0-.5-.22-.5-.5v-5.49c0-.28,.22-.5,.5-.5s.5,.22,.5,.5v5.49c0,.28-.22,.5-.5,.5Z" fill="#002346"></path>
      <path d="M687.89,567.87c-.28,0-.5-.22-.5-.5v-5.49c0-.28,.22-.5,.5-.5s.5,.22,.5,.5v5.49c0,.28-.22,.5-.5,.5Z" fill="#002346"></path>
      <path d="M693.03,567.87c-.28,0-.5-.22-.5-.5v-5.49c0-.28,.22-.5,.5-.5s.5,.22,.5,.5v5.49c0,.28-.22,.5-.5,.5Z" fill="#002346"></path>
      <path d="M698.18,567.87c-.28,0-.5-.22-.5-.5v-5.49c0-.28,.22-.5,.5-.5s.5,.22,.5,.5v5.49c0,.28-.22,.5-.5,.5Z" fill="#002346"></path>
      <path d="M703.33,567.87c-.28,0-.5-.22-.5-.5v-5.49c0-.28,.22-.5,.5-.5s.5,.22,.5,.5v5.49c0,.28-.22,.5-.5,.5Z" fill="#002346"></path>
      <path d="M708.48,567.87c-.28,0-.5-.22-.5-.5v-5.49c0-.28,.22-.5,.5-.5s.5,.22,.5,.5v5.49c0,.28-.22,.5-.5,.5Z" fill="#002346"></path>
      <path d="M713.62,567.87c-.28,0-.5-.22-.5-.5v-5.49c0-.28,.22-.5,.5-.5s.5,.22,.5,.5v5.49c0,.28-.22,.5-.5,.5Z" fill="#002346"></path>
      <path d="M718.77,567.87c-.28,0-.5-.22-.5-.5v-5.49c0-.28,.22-.5,.5-.5s.5,.22,.5,.5v5.49c0,.28-.22,.5-.5,.5Z" fill="#002346"></path>
      <path d="M723.92,567.87c-.28,0-.5-.22-.5-.5v-5.49c0-.28,.22-.5,.5-.5s.5,.22,.5,.5v5.49c0,.28-.22,.5-.5,.5Z" fill="#002346"></path>
      <path d="M729.07,567.87c-.28,0-.5-.22-.5-.5v-5.49c0-.28,.22-.5,.5-.5s.5,.22,.5,.5v5.49c0,.28-.22,.5-.5,.5Z" fill="#002346"></path>
    </g>
  </g>
</svg>
